<svg width="35" height="35" viewBox="0 0 35 35" fill="none" xmlns="http://www.w3.org/2000/svg">
<g clip-path="url(#clip0_59_23)">
<path d="M16.4063 2.1875C16.4063 2.70496 16.0633 3.60273 15.3019 4.59717C14.5405 5.5916 13.4047 6.67884 12.0292 7.69684C9.27815 9.73284 5.56963 11.4913 2.0188 12.0441L2.35632 14.2059C6.36549 13.5818 10.3149 11.6865 13.3301 9.45496C14.8378 8.33919 16.1102 7.13849 17.0386 5.9259C17.2287 5.67765 17.3381 5.42407 17.5001 5.17395C17.662 5.42407 17.7714 5.67765 17.9615 5.9259C18.8899 7.13849 20.1624 8.33919 21.67 9.45496C24.6852 11.6865 28.6346 13.5818 32.6438 14.2059L32.9813 12.0441C29.4305 11.4913 25.722 9.73284 22.9709 7.69684C21.5954 6.67884 20.4596 5.5916 19.6982 4.59717C18.9368 3.60273 18.5938 2.70496 18.5938 2.1875H16.4063ZM27.1729 2.64465C27.1729 2.64465 26.6569 5.39926 25.8869 6.85089L27.8202 7.87628C28.8986 5.84322 29.3305 3.01208 29.3305 3.01208L27.1729 2.64465ZM5.46881 15.3125V30.625H29.5313V15.3125H27.3438V28.4375H7.65631V15.3125H5.46881ZM12.5782 15.3125V16.4062C12.5782 21.7292 11.5165 25.9851 11.5165 25.9851L13.6399 26.5149C13.6399 26.5149 14.5335 22.5096 14.6802 17.5H20.3199C20.4667 22.5096 21.3602 26.5149 21.3602 26.5149L23.4836 25.9851C23.4836 25.9851 22.4219 21.7292 22.4219 16.4062V15.3125H12.5782Z" fill="#F3CA76"/>
</g>
<defs>
<clipPath id="clip0_59_23">
<rect width="35" height="35" fill="white"/>
</clipPath>
</defs>
</svg>
