<svg width="35" height="35" viewBox="0 0 35 35" fill="none" xmlns="http://www.w3.org/2000/svg">
<path d="M31.1719 17.5C31.1719 17.9351 30.999 18.3524 30.6913 18.6601C30.3837 18.9678 29.9664 19.1406 29.5312 19.1406H5.46875C5.03363 19.1406 4.61633 18.9678 4.30865 18.6601C4.00098 18.3524 3.82812 17.9351 3.82812 17.5C3.82812 17.0649 4.00098 16.6476 4.30865 16.3399C4.61633 16.0322 5.03363 15.8594 5.46875 15.8594H29.5312C29.9664 15.8594 30.3837 16.0322 30.6913 16.3399C30.999 16.6476 31.1719 17.0649 31.1719 17.5ZM5.46875 10.3906H29.5312C29.9664 10.3906 30.3837 10.2178 30.6913 9.9101C30.999 9.60242 31.1719 9.18512 31.1719 8.75C31.1719 8.31488 30.999 7.89758 30.6913 7.5899C30.3837 7.28223 29.9664 7.10938 29.5312 7.10938H5.46875C5.03363 7.10938 4.61633 7.28223 4.30865 7.5899C4.00098 7.89758 3.82812 8.31488 3.82812 8.75C3.82812 9.18512 4.00098 9.60242 4.30865 9.9101C4.61633 10.2178 5.03363 10.3906 5.46875 10.3906ZM29.5312 24.6094H5.46875C5.03363 24.6094 4.61633 24.7822 4.30865 25.0899C4.00098 25.3976 3.82812 25.8149 3.82812 26.25C3.82812 26.6851 4.00098 27.1024 4.30865 27.4101C4.61633 27.7178 5.03363 27.8906 5.46875 27.8906H29.5312C29.9664 27.8906 30.3837 27.7178 30.6913 27.4101C30.999 27.1024 31.1719 26.6851 31.1719 26.25C31.1719 25.8149 30.999 25.3976 30.6913 25.0899C30.3837 24.7822 29.9664 24.6094 29.5312 24.6094Z" fill="#F3CA76"/>
</svg>
