<svg width="56" height="56" viewBox="0 0 56 56" fill="none" xmlns="http://www.w3.org/2000/svg">
<path d="M27.9167 55.8333C24.0549 55.8333 20.4257 55.1001 17.0292 53.6335C13.6326 52.1669 10.6781 50.1784 8.16563 47.6677C5.65313 45.1552 3.66453 42.2007 2.19983 38.8042C0.735139 35.4076 0.00186111 31.7785 0 27.9167C0 24.0549 0.733278 20.4257 2.19983 17.0292C3.66639 13.6326 5.65499 10.6781 8.16563 8.16563C10.6781 5.65313 13.6326 3.66453 17.0292 2.19983C20.4257 0.735139 24.0549 0.00186111 27.9167 0C31.7785 0 35.4076 0.733278 38.8042 2.19983C42.2007 3.66639 45.1552 5.65499 47.6677 8.16563C50.1802 10.6781 52.1697 13.6326 53.6363 17.0292C55.1028 20.4257 55.8352 24.0549 55.8333 27.9167C55.8333 31.7785 55.1001 35.4076 53.6335 38.8042C52.1669 42.2007 50.1784 45.1552 47.6677 47.6677C45.1552 50.1802 42.2007 52.1697 38.8042 53.6363C35.4076 55.1028 31.7785 55.8352 27.9167 55.8333Z" fill="#0A2900"/>
<g clip-path="url(#clip0_500_837)">
<path fill-rule="evenodd" clip-rule="evenodd" d="M24.6668 20.3671C25.2762 19.7585 26.1022 19.4166 26.9635 19.4166C27.8247 19.4166 28.6508 19.7585 29.2602 20.3671L41.5191 32.6218C41.8209 32.9237 42.0602 33.282 42.2235 33.6764C42.3867 34.0708 42.4707 34.4935 42.4706 34.9203C42.4705 35.3471 42.3863 35.7697 42.2229 36.1641C42.0595 36.5584 41.82 36.9166 41.5181 37.2183C41.2162 37.5201 40.8578 37.7594 40.4634 37.9227C40.0691 38.0859 39.6464 38.1699 39.2196 38.1698C38.7927 38.1697 38.3701 38.0855 37.9758 37.9221C37.5815 37.7587 37.2232 37.5192 36.9215 37.2173L26.9635 27.2614L17.0055 37.2194C16.7058 37.53 16.3473 37.7777 15.9509 37.9483C15.5545 38.1188 15.128 38.2086 14.6965 38.2126C14.265 38.2165 13.837 38.1345 13.4375 37.9713C13.038 37.808 12.675 37.5669 12.3697 37.2619C12.0644 36.9569 11.8229 36.5941 11.6593 36.1948C11.4957 35.7955 11.4133 35.3675 11.4169 34.936C11.4204 34.5045 11.5099 34.078 11.68 33.6814C11.8501 33.2848 12.0976 32.926 12.4078 32.6261L24.6668 20.3671Z" fill="#D39619"/>
</g>
<defs>
<clipPath id="clip0_500_837">
<rect width="40" height="40" fill="white" transform="translate(7.41675 8.41663)"/>
</clipPath>
</defs>
</svg>
