<svg width="370" height="69" viewBox="0 0 370 69" fill="none" xmlns="http://www.w3.org/2000/svg">
<path d="M19.8145 30.4092V7.31348C19.8145 6.30436 19.5215 5.7347 18.9355 5.60449L17.9834 5.36035C17.2021 5.16504 16.8115 4.71745 16.8115 4.01758C16.8115 3.57812 16.9906 3.2526 17.3486 3.04102C17.723 2.81315 18.2682 2.69922 18.9844 2.69922L19.79 2.6748H30.6543L31.3135 2.65039L32.1924 2.74805C32.8271 2.92708 33.1445 3.32585 33.1445 3.94434C33.1445 4.59538 32.819 5.03483 32.168 5.2627L31.3867 5.50684C30.8984 5.6696 30.6543 6.20671 30.6543 7.11816V27.5283C30.6543 30.5068 29.6777 32.7773 27.7246 34.3398C26.7969 35.0723 25.6169 35.6419 24.1846 36.0488C22.7523 36.472 21.2386 36.6836 19.6436 36.6836C19.3669 36.6836 18.8949 36.6673 18.2275 36.6348V33.8027C18.3415 33.7214 18.4229 33.6644 18.4717 33.6318C18.7972 33.3877 19.0251 33.1924 19.1553 33.0459C19.3018 32.8831 19.4238 32.6878 19.5215 32.46C19.7168 31.9229 19.8145 31.2393 19.8145 30.4092ZM16.0303 33.8027V36.4883C13.9958 36.1628 12.3682 35.6012 11.1475 34.8037C10.0407 34.0713 9.17806 33.1761 8.55957 32.1182C7.95736 31.0439 7.65625 29.8965 7.65625 28.6758C7.65625 27.1947 8.16081 25.9251 9.16992 24.8672C10.1953 23.8092 11.416 23.2803 12.832 23.2803C14.1829 23.2803 15.3304 23.7604 16.2744 24.7207C17.2347 25.6647 17.7148 26.804 17.7148 28.1387C17.7148 29.1803 17.3649 30.1488 16.665 31.0439C16.193 31.6462 15.5094 32.1426 14.6143 32.5332C14.3213 32.6797 14.1667 32.7936 14.1504 32.875C14.1341 32.9564 14.1992 33.0622 14.3457 33.1924C14.5085 33.3063 14.7038 33.4121 14.9316 33.5098C15.1758 33.6074 15.542 33.7051 16.0303 33.8027ZM49.7949 2.6748V36H38.9307H38.2959C37.71 36 37.2542 35.8942 36.9287 35.6826C36.6195 35.4548 36.4648 35.1374 36.4648 34.7305C36.4648 34.0632 36.7904 33.6237 37.4414 33.4121C37.9785 33.2331 38.2878 33.1273 38.3691 33.0947C38.4668 33.0459 38.5645 32.9482 38.6621 32.8018C38.8574 32.5413 38.9551 32.1263 38.9551 31.5566V7.11816C38.9551 6.5485 38.8574 6.13346 38.6621 5.87305C38.5645 5.72656 38.4668 5.63704 38.3691 5.60449C38.2878 5.55566 37.9785 5.44173 37.4414 5.2627C36.7904 5.05111 36.4648 4.61165 36.4648 3.94434C36.4648 3.53743 36.6195 3.22819 36.9287 3.0166C37.2542 2.78874 37.71 2.6748 38.2959 2.6748H38.9307H49.7949ZM51.9678 2.6748H61.8066V11.3174C61.8066 11.8219 61.709 12.1882 61.5137 12.416C61.3184 12.6439 61.0091 12.7578 60.5859 12.7578C60.2279 12.7578 59.9674 12.6846 59.8047 12.5381C59.6419 12.3916 59.4873 12.0905 59.3408 11.6348C58.7223 9.74674 57.8109 8.30632 56.6064 7.31348C55.4183 6.32064 53.8721 5.72656 51.9678 5.53125V2.6748ZM51.8457 20.4482V17.6162C52.7897 17.1605 53.4896 16.6641 53.9453 16.127C54.401 15.5898 54.7347 14.8737 54.9463 13.9785C55.0765 13.36 55.2474 12.9368 55.459 12.709C55.6706 12.4648 55.9717 12.3428 56.3623 12.3428C56.8831 12.3428 57.2412 12.5462 57.4365 12.9531C57.5505 13.1647 57.6074 13.6449 57.6074 14.3936V23.6953C57.6074 24.4603 57.5179 24.9893 57.3389 25.2822C57.1761 25.5752 56.8669 25.7217 56.4111 25.7217C56.0368 25.7217 55.7438 25.6077 55.5322 25.3799C55.3206 25.152 55.1497 24.7695 55.0195 24.2324C54.7428 23.1094 54.3441 22.2467 53.8232 21.6445C53.3187 21.0423 52.6595 20.6436 51.8457 20.4482ZM51.9922 36V33.3633C53.0501 33.2005 53.9209 32.9727 54.6045 32.6797C55.3044 32.3867 56.0042 31.9391 56.7041 31.3369C57.404 30.7347 57.9574 30.1162 58.3643 29.4814C58.7874 28.8304 59.1862 27.9759 59.5605 26.918C59.7396 26.3971 59.9268 26.0472 60.1221 25.8682C60.3174 25.6729 60.5859 25.5752 60.9277 25.5752C61.3835 25.5752 61.7008 25.7135 61.8799 25.9902C62.0589 26.2507 62.1484 26.7145 62.1484 27.3818V36H51.9922ZM75.9668 30.4092V7.31348C75.9668 6.30436 75.6738 5.7347 75.0879 5.60449L74.1357 5.36035C73.3545 5.16504 72.9639 4.71745 72.9639 4.01758C72.9639 3.57812 73.1429 3.2526 73.501 3.04102C73.8753 2.81315 74.4206 2.69922 75.1367 2.69922L75.9424 2.6748H86.8066L87.4658 2.65039L88.3447 2.74805C88.9795 2.92708 89.2969 3.32585 89.2969 3.94434C89.2969 4.59538 88.9714 5.03483 88.3203 5.2627L87.5391 5.50684C87.0508 5.6696 86.8066 6.20671 86.8066 7.11816V27.5283C86.8066 30.5068 85.8301 32.7773 83.877 34.3398C82.9492 35.0723 81.7692 35.6419 80.3369 36.0488C78.9046 36.472 77.391 36.6836 75.7959 36.6836C75.5192 36.6836 75.0472 36.6673 74.3799 36.6348V33.8027C74.4938 33.7214 74.5752 33.6644 74.624 33.6318C74.9495 33.3877 75.1774 33.1924 75.3076 33.0459C75.4541 32.8831 75.5762 32.6878 75.6738 32.46C75.8691 31.9229 75.9668 31.2393 75.9668 30.4092ZM72.1826 33.8027V36.4883C70.1481 36.1628 68.5205 35.6012 67.2998 34.8037C66.193 34.0713 65.3304 33.1761 64.7119 32.1182C64.1097 31.0439 63.8086 29.8965 63.8086 28.6758C63.8086 27.1947 64.3132 25.9251 65.3223 24.8672C66.3477 23.8092 67.5684 23.2803 68.9844 23.2803C70.3353 23.2803 71.4827 23.7604 72.4268 24.7207C73.387 25.6647 73.8672 26.804 73.8672 28.1387C73.8672 29.1803 73.5173 30.1488 72.8174 31.0439C72.3454 31.6462 71.6618 32.1426 70.7666 32.5332C70.4736 32.6797 70.319 32.7936 70.3027 32.875C70.2865 32.9564 70.3516 33.0622 70.498 33.1924C70.6608 33.3063 70.8561 33.4121 71.084 33.5098C71.3281 33.6074 71.6943 33.7051 72.1826 33.8027ZM102.407 2.6748H112.246L119.033 31.3613C119.163 31.8659 119.31 32.3135 119.473 32.7041C119.619 33.0133 119.945 33.2656 120.449 33.4609C120.872 33.64 121.165 33.819 121.328 33.998C121.491 34.1771 121.572 34.4212 121.572 34.7305C121.572 35.5768 120.938 36 119.668 36H107.485C106.997 36 106.606 35.8861 106.313 35.6582C106.021 35.4141 105.874 35.0967 105.874 34.7061C105.874 34.3805 105.939 34.1364 106.069 33.9736C106.2 33.8109 106.493 33.6074 106.948 33.3633C107.274 33.2005 107.502 33.0215 107.632 32.8262C107.762 32.6309 107.827 32.3867 107.827 32.0938C107.827 31.8171 107.803 31.5729 107.754 31.3613L106.973 27.8213H100.161L100.82 24.916H106.289L101.797 5.06738L102.407 2.6748ZM100.723 8.87598L101.968 13.9297L97.6465 29.7012C97.5163 30.1569 97.4512 30.5801 97.4512 30.9707C97.4512 31.9961 97.9313 32.7285 98.8916 33.168L99.7461 33.5586C100.283 33.8027 100.552 34.2096 100.552 34.7793C100.552 35.5931 99.9577 36 98.7695 36H92.5684C91.9661 36 91.486 35.8779 91.1279 35.6338C90.7861 35.3734 90.6152 35.0234 90.6152 34.584C90.6152 34.112 90.9733 33.7214 91.6895 33.4121C92.3568 33.1191 92.8451 32.8587 93.1543 32.6309C93.4798 32.3867 93.7891 32.0612 94.082 31.6543C94.5378 30.987 94.9121 30.0999 95.2051 28.9932L100.723 8.87598ZM137.441 36H126.553H125.918C125.332 36 124.876 35.8942 124.551 35.6826C124.242 35.4548 124.087 35.1374 124.087 34.7305C124.087 34.0632 124.412 33.6237 125.063 33.4121C125.601 33.2331 125.91 33.1273 125.991 33.0947C126.089 33.0459 126.187 32.9482 126.284 32.8018C126.479 32.5413 126.577 32.1263 126.577 31.5566V7.11816C126.577 6.5485 126.479 6.13346 126.284 5.87305C126.187 5.72656 126.089 5.63704 125.991 5.60449C125.91 5.55566 125.601 5.44173 125.063 5.2627C124.412 5.05111 124.087 4.61165 124.087 3.94434C124.087 3.53743 124.242 3.22819 124.551 3.0166C124.876 2.78874 125.332 2.6748 125.918 2.6748H126.553H137.441H138.076C138.662 2.6748 139.11 2.78874 139.419 3.0166C139.744 3.22819 139.907 3.53743 139.907 3.94434C139.907 4.61165 139.582 5.05111 138.931 5.2627C138.394 5.44173 138.076 5.55566 137.979 5.60449C137.897 5.63704 137.808 5.72656 137.71 5.87305C137.515 6.13346 137.417 6.5485 137.417 7.11816V31.5566C137.417 32.4681 137.653 33.0052 138.125 33.168L138.882 33.4121C139.5 33.6074 139.81 34.0469 139.81 34.7305C139.81 35.5768 139.232 36 138.076 36H137.441ZM147.109 12.3428L154.482 31.6299C154.678 32.1507 154.881 32.5495 155.093 32.8262C155.304 33.0866 155.581 33.29 155.923 33.4365C156.265 33.5993 156.484 33.7214 156.582 33.8027C156.81 34.0306 156.924 34.3317 156.924 34.7061C156.924 35.5687 156.313 36 155.093 36H142.812C142.227 36 141.771 35.8779 141.445 35.6338C141.136 35.3896 140.981 35.0397 140.981 34.584C140.981 34.0632 141.283 33.6562 141.885 33.3633C142.259 33.1842 142.511 33.0378 142.642 32.9238C142.772 32.7936 142.845 32.6227 142.861 32.4111C142.861 32.2972 142.796 32.0368 142.666 31.6299L139.541 22.3037C139.248 21.4411 139.102 20.7087 139.102 20.1064C139.102 19.5368 139.338 18.9183 139.81 18.251L145.645 10.0234C146.198 9.25846 146.475 8.46094 146.475 7.63086C146.475 7.17513 146.353 6.75195 146.108 6.36133C145.864 5.9707 145.539 5.69401 145.132 5.53125L144.253 5.16504C143.7 4.93717 143.423 4.55469 143.423 4.01758C143.423 3.57812 143.594 3.22005 143.936 2.94336C144.163 2.76432 144.538 2.6748 145.059 2.6748H153.75C154.32 2.6748 154.759 2.80501 155.068 3.06543C155.394 3.30957 155.557 3.65951 155.557 4.11523C155.557 4.79883 155.182 5.28711 154.434 5.58008L153.14 6.09277C152.603 6.28809 151.919 6.72754 151.089 7.41113C150.47 7.93197 149.705 8.80273 148.794 10.0234L147.109 12.3428ZM186.123 2.6748V36H175.259H174.624C174.038 36 173.582 35.8942 173.257 35.6826C172.948 35.4548 172.793 35.1374 172.793 34.7305C172.793 34.0632 173.118 33.6237 173.77 33.4121C174.307 33.2331 174.616 33.1273 174.697 33.0947C174.795 33.0459 174.893 32.9482 174.99 32.8018C175.186 32.5413 175.283 32.1263 175.283 31.5566V7.11816C175.283 6.5485 175.186 6.13346 174.99 5.87305C174.893 5.72656 174.795 5.63704 174.697 5.60449C174.616 5.55566 174.307 5.44173 173.77 5.2627C173.118 5.05111 172.793 4.61165 172.793 3.94434C172.793 3.53743 172.948 3.22819 173.257 3.0166C173.582 2.78874 174.038 2.6748 174.624 2.6748H175.259H186.123ZM193.716 18.7393C195.181 19.0322 196.304 19.3171 197.085 19.5938C197.882 19.8704 198.599 20.2204 199.233 20.6436C200.324 21.3434 201.154 22.2712 201.724 23.4268C202.31 24.5661 202.603 25.8438 202.603 27.2598C202.603 30.043 201.577 32.2158 199.526 33.7783C198.468 34.5921 197.297 35.1699 196.011 35.5117C194.741 35.8372 193.073 36 191.006 36H188.101V33.4365C188.752 33.3877 189.264 33.2982 189.639 33.168C190.013 33.0215 190.347 32.7855 190.64 32.46C191.177 31.8577 191.445 30.9219 191.445 29.6523V24.1104C191.445 23.2965 191.372 22.6618 191.226 22.2061C191.095 21.7503 190.843 21.3353 190.469 20.9609C190.192 20.668 189.891 20.4564 189.565 20.3262C189.24 20.196 188.776 20.0902 188.174 20.0088V17.4697C188.776 17.4209 189.24 17.3395 189.565 17.2256C189.907 17.1117 190.216 16.9245 190.493 16.6641C190.754 16.4199 190.973 16.1025 191.152 15.7119C191.331 15.3213 191.429 14.9632 191.445 14.6377V13.2949V9.07129C191.445 8.63184 191.372 8.17611 191.226 7.7041C191.079 7.21582 190.9 6.83333 190.688 6.55664C190.379 6.18229 190.029 5.9056 189.639 5.72656C189.264 5.54753 188.752 5.42546 188.101 5.36035V2.6748H190.908C194.619 2.6748 197.451 3.43978 199.404 4.96973C200.299 5.6696 200.983 6.51595 201.455 7.50879C201.927 8.50163 202.163 9.57585 202.163 10.7314C202.163 11.8708 201.919 12.945 201.431 13.9541C200.959 14.9632 200.291 15.8014 199.429 16.4688C198.794 16.9896 198.062 17.4128 197.231 17.7383C196.401 18.0638 195.229 18.3975 193.716 18.7393ZM208.364 26.2588V7.11816C208.364 6.5485 208.267 6.13346 208.071 5.87305C207.974 5.72656 207.876 5.63704 207.778 5.60449C207.697 5.55566 207.388 5.44173 206.851 5.2627C206.2 5.05111 205.874 4.61979 205.874 3.96875C205.874 3.54557 206.029 3.22819 206.338 3.0166C206.663 2.78874 207.119 2.6748 207.705 2.6748H208.34H219.229H219.863L220.742 2.77246C221.019 2.85384 221.247 3.00033 221.426 3.21191C221.605 3.4235 221.694 3.67578 221.694 3.96875C221.694 4.61979 221.369 5.05111 220.718 5.2627C220.181 5.44173 219.863 5.55566 219.766 5.60449C219.684 5.63704 219.595 5.72656 219.497 5.87305C219.302 6.13346 219.204 6.5485 219.204 7.11816V27.6016C219.204 28.985 219.237 29.9535 219.302 30.5068C219.383 31.0439 219.538 31.5322 219.766 31.9717C219.977 32.3786 220.213 32.6715 220.474 32.8506C220.734 33.0296 221.23 33.2331 221.963 33.4609V36.6592H221.426C219.31 36.6592 217.552 36.472 216.152 36.0977C214.508 35.6582 213.068 35.0072 211.831 34.1445C210.594 33.2819 209.715 32.3135 209.194 31.2393C208.641 30.0999 208.364 28.4398 208.364 26.2588ZM224.209 36.6592V33.4609C225.837 33.2493 227.196 32.582 228.286 31.459C229.523 30.1732 230.142 28.3258 230.142 25.917V9.99902C230.142 7.76921 229.287 6.21484 227.578 5.33594C227.074 5.07552 226.74 4.85579 226.577 4.67676C226.431 4.48145 226.357 4.20475 226.357 3.84668C226.357 3.4235 226.512 3.1224 226.821 2.94336C227.131 2.76432 227.635 2.6748 228.335 2.6748H234.316C234.821 2.6748 235.155 2.69108 235.317 2.72363C235.496 2.73991 235.667 2.79688 235.83 2.89453C236.253 3.13867 236.465 3.47233 236.465 3.89551C236.465 4.25358 236.335 4.55469 236.074 4.79883C235.993 4.88021 235.643 5.09993 235.024 5.45801C234.308 5.84863 233.747 6.45085 233.34 7.26465C232.933 8.06217 232.729 8.97363 232.729 9.99902V25.9414C232.729 28.6758 232.127 30.9219 230.923 32.6797C230.044 33.9818 228.783 35.0234 227.139 35.8047C226.325 36.1953 225.348 36.4801 224.209 36.6592ZM253.457 2.6748V36H242.593H241.958C241.372 36 240.916 35.8942 240.591 35.6826C240.282 35.4548 240.127 35.1374 240.127 34.7305C240.127 34.0632 240.452 33.6237 241.104 33.4121C241.641 33.2331 241.95 33.1273 242.031 33.0947C242.129 33.0459 242.227 32.9482 242.324 32.8018C242.52 32.5413 242.617 32.1263 242.617 31.5566V7.11816C242.617 6.5485 242.52 6.13346 242.324 5.87305C242.227 5.72656 242.129 5.63704 242.031 5.60449C241.95 5.55566 241.641 5.44173 241.104 5.2627C240.452 5.05111 240.127 4.61165 240.127 3.94434C240.127 3.53743 240.282 3.22819 240.591 3.0166C240.916 2.78874 241.372 2.6748 241.958 2.6748H242.593H253.457ZM258.389 29.0176V9.75488C258.389 8.56673 258.218 7.62272 257.876 6.92285C257.664 6.46712 257.404 6.13346 257.095 5.92188C256.785 5.71029 256.297 5.53125 255.63 5.38477V2.6748C256.493 2.6748 257.225 2.70736 257.827 2.77246C259.894 3.00033 261.896 3.87923 263.833 5.40918C265.754 6.8903 267.178 8.81901 268.105 11.1953C269.066 13.6042 269.546 16.2734 269.546 19.2031C269.546 22.5234 268.936 25.4775 267.715 28.0654C266.494 30.637 264.744 32.6634 262.466 34.1445C261.359 34.8607 260.326 35.349 259.365 35.6094C258.421 35.8698 257.176 36 255.63 36V33.3633C256.313 33.1842 256.785 33.0215 257.046 32.875C257.323 32.7285 257.559 32.5007 257.754 32.1914C257.998 31.8333 258.161 31.4346 258.242 30.9951C258.34 30.5394 258.389 29.8802 258.389 29.0176ZM282.339 2.6748H292.178L298.965 31.3613C299.095 31.8659 299.242 32.3135 299.404 32.7041C299.551 33.0133 299.876 33.2656 300.381 33.4609C300.804 33.64 301.097 33.819 301.26 33.998C301.423 34.1771 301.504 34.4212 301.504 34.7305C301.504 35.5768 300.869 36 299.6 36H287.417C286.929 36 286.538 35.8861 286.245 35.6582C285.952 35.4141 285.806 35.0967 285.806 34.7061C285.806 34.3805 285.871 34.1364 286.001 33.9736C286.131 33.8109 286.424 33.6074 286.88 33.3633C287.205 33.2005 287.433 33.0215 287.563 32.8262C287.694 32.6309 287.759 32.3867 287.759 32.0938C287.759 31.8171 287.734 31.5729 287.686 31.3613L286.904 27.8213H280.093L280.752 24.916H286.221L281.729 5.06738L282.339 2.6748ZM280.654 8.87598L281.899 13.9297L277.578 29.7012C277.448 30.1569 277.383 30.5801 277.383 30.9707C277.383 31.9961 277.863 32.7285 278.823 33.168L279.678 33.5586C280.215 33.8027 280.483 34.2096 280.483 34.7793C280.483 35.5931 279.889 36 278.701 36H272.5C271.898 36 271.418 35.8779 271.06 35.6338C270.718 35.3734 270.547 35.0234 270.547 34.584C270.547 34.112 270.905 33.7214 271.621 33.4121C272.288 33.1191 272.777 32.8587 273.086 32.6309C273.411 32.3867 273.721 32.0612 274.014 31.6543C274.469 30.987 274.844 30.0999 275.137 28.9932L280.654 8.87598ZM321.548 20.7168V31.3613C321.548 31.9961 321.67 32.4518 321.914 32.7285C322.044 32.8913 322.166 32.9971 322.28 33.0459C322.394 33.0785 322.769 33.1761 323.403 33.3389C324.185 33.5179 324.575 33.9655 324.575 34.6816C324.575 35.1536 324.355 35.5117 323.916 35.7559C323.656 35.9186 323.151 36 322.402 36H321.572H310.684H309.878C309.146 36 308.633 35.9023 308.34 35.707C307.917 35.4466 307.705 35.1048 307.705 34.6816C307.705 33.9655 308.096 33.5179 308.877 33.3389C309.512 33.1761 309.886 33.0785 310 33.0459C310.114 32.9971 310.228 32.8913 310.342 32.7285C310.586 32.4518 310.708 31.9961 310.708 31.3613V23.1094L303.799 6.62988C303.538 6.01139 303.172 5.5638 302.7 5.28711C302.261 5.01042 301.976 4.79069 301.846 4.62793C301.732 4.46517 301.675 4.2373 301.675 3.94434C301.675 3.09798 302.293 2.6748 303.53 2.6748H315.493C316.128 2.6748 316.567 2.74805 316.812 2.89453C317.218 3.15495 317.422 3.49674 317.422 3.91992C317.422 4.44076 317.186 4.84766 316.714 5.14062L316.006 5.58008C315.729 5.75911 315.591 6.02767 315.591 6.38574C315.591 6.79264 315.68 7.19141 315.859 7.58203L321.548 20.7168ZM322.5 18.3975L321.133 15.1992L323.696 9.46191C323.908 8.97363 324.014 8.30632 324.014 7.45996C324.014 6.51595 323.493 5.84049 322.451 5.43359C321.882 5.20573 321.507 5.01042 321.328 4.84766C321.165 4.66862 321.084 4.40007 321.084 4.04199C321.084 3.60254 321.23 3.26888 321.523 3.04102C321.719 2.89453 321.938 2.79688 322.183 2.74805C322.427 2.69922 322.85 2.6748 323.452 2.6748H329.482C330.622 2.6748 331.191 3.13053 331.191 4.04199C331.191 4.36751 331.11 4.61979 330.947 4.79883C330.801 4.97786 330.508 5.16504 330.068 5.36035C329.271 5.71842 328.701 6.0765 328.359 6.43457C327.871 6.9554 327.464 7.54948 327.139 8.2168L326.577 9.46191L322.5 18.3975ZM343.179 2.6748H353.018L359.805 31.3613C359.935 31.8659 360.081 32.3135 360.244 32.7041C360.391 33.0133 360.716 33.2656 361.221 33.4609C361.644 33.64 361.937 33.819 362.1 33.998C362.262 34.1771 362.344 34.4212 362.344 34.7305C362.344 35.5768 361.709 36 360.439 36H348.257C347.769 36 347.378 35.8861 347.085 35.6582C346.792 35.4141 346.646 35.0967 346.646 34.7061C346.646 34.3805 346.711 34.1364 346.841 33.9736C346.971 33.8109 347.264 33.6074 347.72 33.3633C348.045 33.2005 348.273 33.0215 348.403 32.8262C348.534 32.6309 348.599 32.3867 348.599 32.0938C348.599 31.8171 348.574 31.5729 348.525 31.3613L347.744 27.8213H340.933L341.592 24.916H347.061L342.568 5.06738L343.179 2.6748ZM341.494 8.87598L342.739 13.9297L338.418 29.7012C338.288 30.1569 338.223 30.5801 338.223 30.9707C338.223 31.9961 338.703 32.7285 339.663 33.168L340.518 33.5586C341.055 33.8027 341.323 34.2096 341.323 34.7793C341.323 35.5931 340.729 36 339.541 36H333.34C332.738 36 332.257 35.8779 331.899 35.6338C331.558 35.3734 331.387 35.0234 331.387 34.584C331.387 34.112 331.745 33.7214 332.461 33.4121C333.128 33.1191 333.617 32.8587 333.926 32.6309C334.251 32.3867 334.561 32.0612 334.854 31.6543C335.309 30.987 335.684 30.0999 335.977 28.9932L341.494 8.87598Z" fill="#EFB849"/>
<path d="M144 57.2L139.475 45C139.392 44.7667 139.35 44.3667 139.35 43.8H139.05L138.5 50.4C138.383 51.7667 138.258 53.3833 138.125 55.25C137.908 56.5667 137.325 57.65 136.375 58.5C135.442 59.3667 134.35 59.8 133.1 59.8C131.883 59.8 130.9 59.4583 130.15 58.775C129.4 58.0917 129.025 57.2 129.025 56.1C129.025 55.05 129.475 54.1583 130.375 53.425C131.292 52.675 132.392 52.3 133.675 52.3L133.525 53.2C132.375 53.2 131.392 53.4833 130.575 54.05C129.758 54.5833 129.35 55.25 129.35 56.05C129.35 57.05 129.7 57.8583 130.4 58.475C131.1 59.0917 132.025 59.4 133.175 59.4C134.175 59.4 135.042 58.9917 135.775 58.175C136.525 57.375 137 56.3667 137.2 55.15L137.9 50.425L138.425 43.775L133.7 43.675V43.5H140.525C140.525 44.1167 140.592 44.5917 140.725 44.925L145.2 56.325C145.383 54.975 145.583 53.0083 145.8 50.425L146.025 43.775L144.5 43.675V43.5L147.3 43.475L146.275 50.4C145.958 52.5333 145.683 54.7333 145.45 57L144 57.2ZM148.721 44.35C149.521 43.7 150.096 43.375 150.446 43.375C150.846 43.375 151.146 43.525 151.346 43.825C151.546 44.1083 151.646 44.6167 151.646 45.35C151.646 45.9333 151.58 46.675 151.446 47.575L150.596 54.325C150.58 54.475 150.571 54.625 150.571 54.775C150.571 55.2583 150.663 55.6667 150.846 56C151.046 56.3333 151.296 56.5 151.596 56.5C152.463 56.5 153.388 55.7833 154.371 54.35C155.371 52.9 156.046 51.2667 156.396 49.45L157.096 43.75L156.146 43.675V43.5H157.671C158.188 43.5 158.596 43.4667 158.896 43.4L158.946 43.45L157.171 52.9C157.005 54.0667 156.921 54.8667 156.921 55.3C156.921 55.7167 156.98 56.025 157.096 56.225C157.23 56.4083 157.438 56.5 157.721 56.5C158.305 56.5 159.246 55.925 160.546 54.775L160.646 54.875C160.13 55.325 159.696 55.6917 159.346 55.975C158.996 56.2417 158.596 56.5 158.146 56.75C157.713 57 157.346 57.125 157.046 57.125C156.213 57.125 155.796 56.35 155.796 54.8C155.796 54.2667 155.846 53.6417 155.946 52.925L156.121 51.65C155.571 53.1833 154.855 54.4833 153.971 55.55C153.088 56.6 152.263 57.125 151.496 57.125C150.796 57.125 150.213 56.925 149.746 56.525C149.296 56.1083 149.071 55.575 149.071 54.925C149.071 54.7917 149.08 54.65 149.096 54.5L150.146 47.6C150.396 45.9167 150.521 44.9833 150.521 44.8C150.521 44.2833 150.338 44.0167 149.971 44C149.705 44 149.313 44.1583 148.796 44.475L148.721 44.35ZM169.714 42.7L169.114 45.225L169.039 45.2C168.739 44.9 168.314 44.6 167.764 44.3C167.231 43.9833 166.764 43.825 166.364 43.825C165.431 43.825 164.656 44.05 164.039 44.5C163.422 44.95 163.114 45.5833 163.114 46.4C163.114 46.7 163.181 46.975 163.314 47.225C163.447 47.4583 163.664 47.6917 163.964 47.925C164.281 48.1583 164.556 48.35 164.789 48.5C165.022 48.65 165.372 48.85 165.839 49.1C166.289 49.35 166.639 49.55 166.889 49.7C167.139 49.85 167.456 50.0667 167.839 50.35C168.222 50.6333 168.514 50.9083 168.714 51.175C168.914 51.425 169.089 51.7417 169.239 52.125C169.406 52.4917 169.489 52.8917 169.489 53.325C169.489 54.375 169.006 55.275 168.039 56.025C167.089 56.7583 165.947 57.125 164.614 57.125C163.981 57.125 163.164 56.925 162.164 56.525C161.614 56.3083 161.239 56.2 161.039 56.2L161.339 53.975H161.514C161.514 54.0083 161.514 54.05 161.514 54.1C161.514 54.7667 161.814 55.3833 162.414 55.95C163.014 56.5 163.764 56.775 164.664 56.775C165.647 56.775 166.481 56.475 167.164 55.875C167.864 55.2583 168.214 54.525 168.214 53.675C168.214 53.375 168.147 53.1 168.014 52.85C167.881 52.6 167.664 52.3583 167.364 52.125C167.081 51.8917 166.814 51.7 166.564 51.55C166.331 51.3833 165.989 51.175 165.539 50.925C165.089 50.675 164.747 50.4833 164.514 50.35C164.281 50.2 163.981 49.9833 163.614 49.7C163.247 49.4167 162.964 49.15 162.764 48.9C162.581 48.65 162.414 48.3417 162.264 47.975C162.114 47.5917 162.039 47.1917 162.039 46.775C162.039 45.7083 162.447 44.875 163.264 44.275C164.097 43.675 165.147 43.375 166.414 43.375C166.731 43.375 167.164 43.4417 167.714 43.575C168.047 43.6583 168.281 43.7 168.414 43.7C168.764 43.7 169.022 43.6167 169.189 43.45C169.356 43.2667 169.497 43.0083 169.614 42.675L169.714 42.7ZM171.722 57L170.472 57.1C170.822 56.5 171.472 55.1083 172.422 52.925L176.472 43.775L176.872 43.875L173.272 51.975H178.072L177.297 43.775L175.397 43.675V43.5L179.197 43.475L179.372 51.975H180.247C180.547 51.975 180.797 51.85 180.997 51.6C181.197 51.35 181.414 50.925 181.647 50.325L181.797 50.35C181.531 51.2167 181.289 51.875 181.072 52.325H179.372L179.397 52.9C179.414 53.4 179.422 53.775 179.422 54.025C179.439 54.275 179.456 54.5667 179.472 54.9C179.506 55.2333 179.539 55.475 179.572 55.625C179.622 55.775 179.689 55.9333 179.772 56.1C179.856 56.25 179.956 56.3583 180.072 56.425C180.206 56.475 180.356 56.5 180.522 56.5C181.072 56.5 181.997 55.925 183.297 54.775L183.397 54.875C182.897 55.3417 182.481 55.7167 182.147 56C181.831 56.2667 181.456 56.525 181.022 56.775C180.606 57.0083 180.239 57.125 179.922 57.125C179.422 57.125 179.039 56.8 178.772 56.15C178.506 55.4833 178.297 54.4083 178.147 52.925L178.097 52.325H173.122L172.847 52.9C172.131 54.5167 171.756 55.8833 171.722 57ZM185.572 57L184.297 57.1C184.464 56.55 184.822 54.325 185.372 50.425L185.897 43.775L184.172 43.675V43.5H187.997C187.997 44.1167 188.064 44.5917 188.197 44.925L192.672 56.325C192.855 54.975 193.055 53.0083 193.272 50.425L193.497 43.775L191.972 43.675V43.5L194.772 43.475L193.747 50.4C193.43 52.5333 193.155 54.7333 192.922 57L191.472 57.2L186.947 45C186.864 44.7667 186.822 44.3667 186.822 43.8H186.522L185.972 50.4C185.722 52.7 185.589 54.9 185.572 57ZM200.682 57L199.232 57.025C199.365 56.4083 199.582 55.0417 199.882 52.925L200.682 43.85H199.882L196.932 44.1L196.532 46.275H196.357L196.682 43.225L199.907 43.5H203.557L206.857 43.225L206.357 46.275H206.182L206.382 44.125L203.532 43.85H202.107C202.107 43.8667 202.099 43.8833 202.082 43.9L202.582 43.975L200.932 52.9C200.749 54.2167 200.657 55.3167 200.657 56.2C200.657 56.4333 200.665 56.7 200.682 57ZM206.39 57L205.14 57.1C205.49 56.5 206.14 55.1083 207.09 52.925L211.14 43.775L211.54 43.875L207.94 51.975H212.74L211.965 43.775L210.065 43.675V43.5L213.865 43.475L214.04 51.975H214.915C215.215 51.975 215.465 51.85 215.665 51.6C215.865 51.35 216.082 50.925 216.315 50.325L216.465 50.35C216.199 51.2167 215.957 51.875 215.74 52.325H214.04L214.065 52.9C214.082 53.4 214.09 53.775 214.09 54.025C214.107 54.275 214.124 54.5667 214.14 54.9C214.174 55.2333 214.207 55.475 214.24 55.625C214.29 55.775 214.357 55.9333 214.44 56.1C214.524 56.25 214.624 56.3583 214.74 56.425C214.874 56.475 215.024 56.5 215.19 56.5C215.74 56.5 216.665 55.925 217.965 54.775L218.065 54.875C217.565 55.3417 217.149 55.7167 216.815 56C216.499 56.2667 216.124 56.525 215.69 56.775C215.274 57.0083 214.907 57.125 214.59 57.125C214.09 57.125 213.707 56.8 213.44 56.15C213.174 55.4833 212.965 54.4083 212.815 52.925L212.765 52.325H207.79L207.515 52.9C206.799 54.5167 206.424 55.8833 206.39 57ZM220.49 57L218.99 57.025C219.207 56.3417 219.457 54.975 219.74 52.925L220.565 43.75L218.84 43.675V43.5L222.39 43.475C222.69 43.4583 222.957 43.4417 223.19 43.425C224.14 43.3917 224.865 43.375 225.365 43.375C226.348 43.375 227.232 43.7583 228.015 44.525C228.815 45.275 229.215 46.175 229.215 47.225C229.215 48.575 228.732 49.7333 227.765 50.7C226.815 51.65 225.665 52.125 224.315 52.125C223.715 52.1083 223.115 52.0917 222.515 52.075C223.132 52.2917 223.715 52.5667 224.265 52.9C224.832 53.2167 225.39 53.625 225.94 54.125C226.49 54.6083 226.932 55.025 227.265 55.375C227.598 55.7083 228.057 56.1917 228.64 56.825C230.257 58.575 231.84 59.9167 233.39 60.85C234.957 61.8 236.657 62.275 238.49 62.275C239.19 62.275 239.915 62.175 240.665 61.975C241.415 61.775 242.048 61.4917 242.565 61.125L242.665 61.25C242.032 61.7667 241.223 62.2083 240.24 62.575C239.273 62.9417 238.39 63.125 237.59 63.125C236.54 63.125 235.523 62.9583 234.54 62.625C233.557 62.2917 232.607 61.7917 231.69 61.125C230.79 60.475 229.957 59.7833 229.19 59.05C228.44 58.3167 227.632 57.4417 226.765 56.425C226.215 55.775 225.782 55.2833 225.465 54.95C225.165 54.6 224.782 54.2 224.315 53.75C223.848 53.3 223.398 52.95 222.965 52.7C222.548 52.4333 222.123 52.2333 221.69 52.1L221.74 51.8L224.115 51.75C225.098 51.75 225.94 51.3083 226.64 50.425C227.357 49.525 227.715 48.4417 227.715 47.175C227.715 46.2083 227.465 45.4083 226.965 44.775C226.482 44.1417 225.848 43.825 225.065 43.825C223.682 43.825 222.715 43.8083 222.165 43.775L222.115 43.85L222.465 43.925L220.965 52.9C220.715 54.5167 220.557 55.8833 220.49 57ZM231.024 57L229.774 57.1C230.124 56.5 230.774 55.1083 231.724 52.925L235.774 43.775L236.174 43.875L232.574 51.975H237.374L236.599 43.775L234.699 43.675V43.5L238.499 43.475L238.674 51.975H239.549C239.849 51.975 240.099 51.85 240.299 51.6C240.499 51.35 240.716 50.925 240.949 50.325L241.099 50.35C240.833 51.2167 240.591 51.875 240.374 52.325H238.674L238.699 52.9C238.716 53.4 238.724 53.775 238.724 54.025C238.741 54.275 238.758 54.5667 238.774 54.9C238.808 55.2333 238.841 55.475 238.874 55.625C238.924 55.775 238.991 55.9333 239.074 56.1C239.158 56.25 239.258 56.3583 239.374 56.425C239.508 56.475 239.658 56.5 239.824 56.5C240.374 56.5 241.299 55.925 242.599 54.775L242.699 54.875C242.199 55.3417 241.783 55.7167 241.449 56C241.133 56.2667 240.758 56.525 240.324 56.775C239.908 57.0083 239.541 57.125 239.224 57.125C238.724 57.125 238.341 56.8 238.074 56.15C237.808 55.4833 237.599 54.4083 237.449 52.925L237.399 52.325H232.424L232.149 52.9C231.433 54.5167 231.058 55.8833 231.024 57Z" fill="#EFB849"/>
<rect x="0.5" y="50" width="110" height="6" fill="#EFB849"/>
<rect x="259.5" y="50" width="110" height="6" fill="#EFB849"/>
</svg>
