<svg width="369" height="69" viewBox="0 0 369 69" fill="none" xmlns="http://www.w3.org/2000/svg">
<path d="M19.3145 30.4092V7.31348C19.3145 6.30436 19.0215 5.7347 18.4355 5.60449L17.4834 5.36035C16.7021 5.16504 16.3115 4.71745 16.3115 4.01758C16.3115 3.57812 16.4906 3.2526 16.8486 3.04102C17.223 2.81315 17.7682 2.69922 18.4844 2.69922L19.29 2.6748H30.1543L30.8135 2.65039L31.6924 2.74805C32.3271 2.92708 32.6445 3.32585 32.6445 3.94434C32.6445 4.59538 32.319 5.03483 31.668 5.2627L30.8867 5.50684C30.3984 5.6696 30.1543 6.20671 30.1543 7.11816V27.5283C30.1543 30.5068 29.1777 32.7773 27.2246 34.3398C26.2969 35.0723 25.1169 35.6419 23.6846 36.0488C22.2523 36.472 20.7386 36.6836 19.1436 36.6836C18.8669 36.6836 18.3949 36.6673 17.7275 36.6348V33.8027C17.8415 33.7214 17.9229 33.6644 17.9717 33.6318C18.2972 33.3877 18.5251 33.1924 18.6553 33.0459C18.8018 32.8831 18.9238 32.6878 19.0215 32.46C19.2168 31.9229 19.3145 31.2393 19.3145 30.4092ZM15.5303 33.8027V36.4883C13.4958 36.1628 11.8682 35.6012 10.6475 34.8037C9.54069 34.0713 8.67806 33.1761 8.05957 32.1182C7.45736 31.0439 7.15625 29.8965 7.15625 28.6758C7.15625 27.1947 7.66081 25.9251 8.66992 24.8672C9.69531 23.8092 10.916 23.2803 12.332 23.2803C13.6829 23.2803 14.8304 23.7604 15.7744 24.7207C16.7347 25.6647 17.2148 26.804 17.2148 28.1387C17.2148 29.1803 16.8649 30.1488 16.165 31.0439C15.693 31.6462 15.0094 32.1426 14.1143 32.5332C13.8213 32.6797 13.6667 32.7936 13.6504 32.875C13.6341 32.9564 13.6992 33.0622 13.8457 33.1924C14.0085 33.3063 14.2038 33.4121 14.4316 33.5098C14.6758 33.6074 15.042 33.7051 15.5303 33.8027ZM49.2949 2.6748V36H38.4307H37.7959C37.21 36 36.7542 35.8942 36.4287 35.6826C36.1195 35.4548 35.9648 35.1374 35.9648 34.7305C35.9648 34.0632 36.2904 33.6237 36.9414 33.4121C37.4785 33.2331 37.7878 33.1273 37.8691 33.0947C37.9668 33.0459 38.0645 32.9482 38.1621 32.8018C38.3574 32.5413 38.4551 32.1263 38.4551 31.5566V7.11816C38.4551 6.5485 38.3574 6.13346 38.1621 5.87305C38.0645 5.72656 37.9668 5.63704 37.8691 5.60449C37.7878 5.55566 37.4785 5.44173 36.9414 5.2627C36.2904 5.05111 35.9648 4.61165 35.9648 3.94434C35.9648 3.53743 36.1195 3.22819 36.4287 3.0166C36.7542 2.78874 37.21 2.6748 37.7959 2.6748H38.4307H49.2949ZM51.4678 2.6748H61.3066V11.3174C61.3066 11.8219 61.209 12.1882 61.0137 12.416C60.8184 12.6439 60.5091 12.7578 60.0859 12.7578C59.7279 12.7578 59.4674 12.6846 59.3047 12.5381C59.1419 12.3916 58.9873 12.0905 58.8408 11.6348C58.2223 9.74674 57.3109 8.30632 56.1064 7.31348C54.9183 6.32064 53.3721 5.72656 51.4678 5.53125V2.6748ZM51.3457 20.4482V17.6162C52.2897 17.1605 52.9896 16.6641 53.4453 16.127C53.901 15.5898 54.2347 14.8737 54.4463 13.9785C54.5765 13.36 54.7474 12.9368 54.959 12.709C55.1706 12.4648 55.4717 12.3428 55.8623 12.3428C56.3831 12.3428 56.7412 12.5462 56.9365 12.9531C57.0505 13.1647 57.1074 13.6449 57.1074 14.3936V23.6953C57.1074 24.4603 57.0179 24.9893 56.8389 25.2822C56.6761 25.5752 56.3669 25.7217 55.9111 25.7217C55.5368 25.7217 55.2438 25.6077 55.0322 25.3799C54.8206 25.152 54.6497 24.7695 54.5195 24.2324C54.2428 23.1094 53.8441 22.2467 53.3232 21.6445C52.8187 21.0423 52.1595 20.6436 51.3457 20.4482ZM51.4922 36V33.3633C52.5501 33.2005 53.4209 32.9727 54.1045 32.6797C54.8044 32.3867 55.5042 31.9391 56.2041 31.3369C56.904 30.7347 57.4574 30.1162 57.8643 29.4814C58.2874 28.8304 58.6862 27.9759 59.0605 26.918C59.2396 26.3971 59.4268 26.0472 59.6221 25.8682C59.8174 25.6729 60.0859 25.5752 60.4277 25.5752C60.8835 25.5752 61.2008 25.7135 61.3799 25.9902C61.5589 26.2507 61.6484 26.7145 61.6484 27.3818V36H51.4922ZM75.4668 30.4092V7.31348C75.4668 6.30436 75.1738 5.7347 74.5879 5.60449L73.6357 5.36035C72.8545 5.16504 72.4639 4.71745 72.4639 4.01758C72.4639 3.57812 72.6429 3.2526 73.001 3.04102C73.3753 2.81315 73.9206 2.69922 74.6367 2.69922L75.4424 2.6748H86.3066L86.9658 2.65039L87.8447 2.74805C88.4795 2.92708 88.7969 3.32585 88.7969 3.94434C88.7969 4.59538 88.4714 5.03483 87.8203 5.2627L87.0391 5.50684C86.5508 5.6696 86.3066 6.20671 86.3066 7.11816V27.5283C86.3066 30.5068 85.3301 32.7773 83.377 34.3398C82.4492 35.0723 81.2692 35.6419 79.8369 36.0488C78.4046 36.472 76.891 36.6836 75.2959 36.6836C75.0192 36.6836 74.5472 36.6673 73.8799 36.6348V33.8027C73.9938 33.7214 74.0752 33.6644 74.124 33.6318C74.4495 33.3877 74.6774 33.1924 74.8076 33.0459C74.9541 32.8831 75.0762 32.6878 75.1738 32.46C75.3691 31.9229 75.4668 31.2393 75.4668 30.4092ZM71.6826 33.8027V36.4883C69.6481 36.1628 68.0205 35.6012 66.7998 34.8037C65.693 34.0713 64.8304 33.1761 64.2119 32.1182C63.6097 31.0439 63.3086 29.8965 63.3086 28.6758C63.3086 27.1947 63.8132 25.9251 64.8223 24.8672C65.8477 23.8092 67.0684 23.2803 68.4844 23.2803C69.8353 23.2803 70.9827 23.7604 71.9268 24.7207C72.887 25.6647 73.3672 26.804 73.3672 28.1387C73.3672 29.1803 73.0173 30.1488 72.3174 31.0439C71.8454 31.6462 71.1618 32.1426 70.2666 32.5332C69.9736 32.6797 69.819 32.7936 69.8027 32.875C69.7865 32.9564 69.8516 33.0622 69.998 33.1924C70.1608 33.3063 70.3561 33.4121 70.584 33.5098C70.8281 33.6074 71.1943 33.7051 71.6826 33.8027ZM101.907 2.6748H111.746L118.533 31.3613C118.663 31.8659 118.81 32.3135 118.973 32.7041C119.119 33.0133 119.445 33.2656 119.949 33.4609C120.372 33.64 120.665 33.819 120.828 33.998C120.991 34.1771 121.072 34.4212 121.072 34.7305C121.072 35.5768 120.438 36 119.168 36H106.985C106.497 36 106.106 35.8861 105.813 35.6582C105.521 35.4141 105.374 35.0967 105.374 34.7061C105.374 34.3805 105.439 34.1364 105.569 33.9736C105.7 33.8109 105.993 33.6074 106.448 33.3633C106.774 33.2005 107.002 33.0215 107.132 32.8262C107.262 32.6309 107.327 32.3867 107.327 32.0938C107.327 31.8171 107.303 31.5729 107.254 31.3613L106.473 27.8213H99.6611L100.32 24.916H105.789L101.297 5.06738L101.907 2.6748ZM100.223 8.87598L101.468 13.9297L97.1465 29.7012C97.0163 30.1569 96.9512 30.5801 96.9512 30.9707C96.9512 31.9961 97.4313 32.7285 98.3916 33.168L99.2461 33.5586C99.7832 33.8027 100.052 34.2096 100.052 34.7793C100.052 35.5931 99.4577 36 98.2695 36H92.0684C91.4661 36 90.986 35.8779 90.6279 35.6338C90.2861 35.3734 90.1152 35.0234 90.1152 34.584C90.1152 34.112 90.4733 33.7214 91.1895 33.4121C91.8568 33.1191 92.3451 32.8587 92.6543 32.6309C92.9798 32.3867 93.2891 32.0612 93.582 31.6543C94.0378 30.987 94.4121 30.0999 94.7051 28.9932L100.223 8.87598ZM136.941 36H126.053H125.418C124.832 36 124.376 35.8942 124.051 35.6826C123.742 35.4548 123.587 35.1374 123.587 34.7305C123.587 34.0632 123.912 33.6237 124.563 33.4121C125.101 33.2331 125.41 33.1273 125.491 33.0947C125.589 33.0459 125.687 32.9482 125.784 32.8018C125.979 32.5413 126.077 32.1263 126.077 31.5566V7.11816C126.077 6.5485 125.979 6.13346 125.784 5.87305C125.687 5.72656 125.589 5.63704 125.491 5.60449C125.41 5.55566 125.101 5.44173 124.563 5.2627C123.912 5.05111 123.587 4.61165 123.587 3.94434C123.587 3.53743 123.742 3.22819 124.051 3.0166C124.376 2.78874 124.832 2.6748 125.418 2.6748H126.053H136.941H137.576C138.162 2.6748 138.61 2.78874 138.919 3.0166C139.244 3.22819 139.407 3.53743 139.407 3.94434C139.407 4.61165 139.082 5.05111 138.431 5.2627C137.894 5.44173 137.576 5.55566 137.479 5.60449C137.397 5.63704 137.308 5.72656 137.21 5.87305C137.015 6.13346 136.917 6.5485 136.917 7.11816V31.5566C136.917 32.4681 137.153 33.0052 137.625 33.168L138.382 33.4121C139 33.6074 139.31 34.0469 139.31 34.7305C139.31 35.5768 138.732 36 137.576 36H136.941ZM146.609 12.3428L153.982 31.6299C154.178 32.1507 154.381 32.5495 154.593 32.8262C154.804 33.0866 155.081 33.29 155.423 33.4365C155.765 33.5993 155.984 33.7214 156.082 33.8027C156.31 34.0306 156.424 34.3317 156.424 34.7061C156.424 35.5687 155.813 36 154.593 36H142.312C141.727 36 141.271 35.8779 140.945 35.6338C140.636 35.3896 140.481 35.0397 140.481 34.584C140.481 34.0632 140.783 33.6562 141.385 33.3633C141.759 33.1842 142.011 33.0378 142.142 32.9238C142.272 32.7936 142.345 32.6227 142.361 32.4111C142.361 32.2972 142.296 32.0368 142.166 31.6299L139.041 22.3037C138.748 21.4411 138.602 20.7087 138.602 20.1064C138.602 19.5368 138.838 18.9183 139.31 18.251L145.145 10.0234C145.698 9.25846 145.975 8.46094 145.975 7.63086C145.975 7.17513 145.853 6.75195 145.608 6.36133C145.364 5.9707 145.039 5.69401 144.632 5.53125L143.753 5.16504C143.2 4.93717 142.923 4.55469 142.923 4.01758C142.923 3.57812 143.094 3.22005 143.436 2.94336C143.663 2.76432 144.038 2.6748 144.559 2.6748H153.25C153.82 2.6748 154.259 2.80501 154.568 3.06543C154.894 3.30957 155.057 3.65951 155.057 4.11523C155.057 4.79883 154.682 5.28711 153.934 5.58008L152.64 6.09277C152.103 6.28809 151.419 6.72754 150.589 7.41113C149.97 7.93197 149.205 8.80273 148.294 10.0234L146.609 12.3428ZM185.623 2.6748V36H174.759H174.124C173.538 36 173.082 35.8942 172.757 35.6826C172.448 35.4548 172.293 35.1374 172.293 34.7305C172.293 34.0632 172.618 33.6237 173.27 33.4121C173.807 33.2331 174.116 33.1273 174.197 33.0947C174.295 33.0459 174.393 32.9482 174.49 32.8018C174.686 32.5413 174.783 32.1263 174.783 31.5566V7.11816C174.783 6.5485 174.686 6.13346 174.49 5.87305C174.393 5.72656 174.295 5.63704 174.197 5.60449C174.116 5.55566 173.807 5.44173 173.27 5.2627C172.618 5.05111 172.293 4.61165 172.293 3.94434C172.293 3.53743 172.448 3.22819 172.757 3.0166C173.082 2.78874 173.538 2.6748 174.124 2.6748H174.759H185.623ZM193.216 18.7393C194.681 19.0322 195.804 19.3171 196.585 19.5938C197.382 19.8704 198.099 20.2204 198.733 20.6436C199.824 21.3434 200.654 22.2712 201.224 23.4268C201.81 24.5661 202.103 25.8438 202.103 27.2598C202.103 30.043 201.077 32.2158 199.026 33.7783C197.968 34.5921 196.797 35.1699 195.511 35.5117C194.241 35.8372 192.573 36 190.506 36H187.601V33.4365C188.252 33.3877 188.764 33.2982 189.139 33.168C189.513 33.0215 189.847 32.7855 190.14 32.46C190.677 31.8577 190.945 30.9219 190.945 29.6523V24.1104C190.945 23.2965 190.872 22.6618 190.726 22.2061C190.595 21.7503 190.343 21.3353 189.969 20.9609C189.692 20.668 189.391 20.4564 189.065 20.3262C188.74 20.196 188.276 20.0902 187.674 20.0088V17.4697C188.276 17.4209 188.74 17.3395 189.065 17.2256C189.407 17.1117 189.716 16.9245 189.993 16.6641C190.254 16.4199 190.473 16.1025 190.652 15.7119C190.831 15.3213 190.929 14.9632 190.945 14.6377V13.2949V9.07129C190.945 8.63184 190.872 8.17611 190.726 7.7041C190.579 7.21582 190.4 6.83333 190.188 6.55664C189.879 6.18229 189.529 5.9056 189.139 5.72656C188.764 5.54753 188.252 5.42546 187.601 5.36035V2.6748H190.408C194.119 2.6748 196.951 3.43978 198.904 4.96973C199.799 5.6696 200.483 6.51595 200.955 7.50879C201.427 8.50163 201.663 9.57585 201.663 10.7314C201.663 11.8708 201.419 12.945 200.931 13.9541C200.459 14.9632 199.791 15.8014 198.929 16.4688C198.294 16.9896 197.562 17.4128 196.731 17.7383C195.901 18.0638 194.729 18.3975 193.216 18.7393ZM207.864 26.2588V7.11816C207.864 6.5485 207.767 6.13346 207.571 5.87305C207.474 5.72656 207.376 5.63704 207.278 5.60449C207.197 5.55566 206.888 5.44173 206.351 5.2627C205.7 5.05111 205.374 4.61979 205.374 3.96875C205.374 3.54557 205.529 3.22819 205.838 3.0166C206.163 2.78874 206.619 2.6748 207.205 2.6748H207.84H218.729H219.363L220.242 2.77246C220.519 2.85384 220.747 3.00033 220.926 3.21191C221.105 3.4235 221.194 3.67578 221.194 3.96875C221.194 4.61979 220.869 5.05111 220.218 5.2627C219.681 5.44173 219.363 5.55566 219.266 5.60449C219.184 5.63704 219.095 5.72656 218.997 5.87305C218.802 6.13346 218.704 6.5485 218.704 7.11816V27.6016C218.704 28.985 218.737 29.9535 218.802 30.5068C218.883 31.0439 219.038 31.5322 219.266 31.9717C219.477 32.3786 219.713 32.6715 219.974 32.8506C220.234 33.0296 220.73 33.2331 221.463 33.4609V36.6592H220.926C218.81 36.6592 217.052 36.472 215.652 36.0977C214.008 35.6582 212.568 35.0072 211.331 34.1445C210.094 33.2819 209.215 32.3135 208.694 31.2393C208.141 30.0999 207.864 28.4398 207.864 26.2588ZM223.709 36.6592V33.4609C225.337 33.2493 226.696 32.582 227.786 31.459C229.023 30.1732 229.642 28.3258 229.642 25.917V9.99902C229.642 7.76921 228.787 6.21484 227.078 5.33594C226.574 5.07552 226.24 4.85579 226.077 4.67676C225.931 4.48145 225.857 4.20475 225.857 3.84668C225.857 3.4235 226.012 3.1224 226.321 2.94336C226.631 2.76432 227.135 2.6748 227.835 2.6748H233.816C234.321 2.6748 234.655 2.69108 234.817 2.72363C234.996 2.73991 235.167 2.79688 235.33 2.89453C235.753 3.13867 235.965 3.47233 235.965 3.89551C235.965 4.25358 235.835 4.55469 235.574 4.79883C235.493 4.88021 235.143 5.09993 234.524 5.45801C233.808 5.84863 233.247 6.45085 232.84 7.26465C232.433 8.06217 232.229 8.97363 232.229 9.99902V25.9414C232.229 28.6758 231.627 30.9219 230.423 32.6797C229.544 33.9818 228.283 35.0234 226.639 35.8047C225.825 36.1953 224.848 36.4801 223.709 36.6592ZM252.957 2.6748V36H242.093H241.458C240.872 36 240.416 35.8942 240.091 35.6826C239.782 35.4548 239.627 35.1374 239.627 34.7305C239.627 34.0632 239.952 33.6237 240.604 33.4121C241.141 33.2331 241.45 33.1273 241.531 33.0947C241.629 33.0459 241.727 32.9482 241.824 32.8018C242.02 32.5413 242.117 32.1263 242.117 31.5566V7.11816C242.117 6.5485 242.02 6.13346 241.824 5.87305C241.727 5.72656 241.629 5.63704 241.531 5.60449C241.45 5.55566 241.141 5.44173 240.604 5.2627C239.952 5.05111 239.627 4.61165 239.627 3.94434C239.627 3.53743 239.782 3.22819 240.091 3.0166C240.416 2.78874 240.872 2.6748 241.458 2.6748H242.093H252.957ZM257.889 29.0176V9.75488C257.889 8.56673 257.718 7.62272 257.376 6.92285C257.164 6.46712 256.904 6.13346 256.595 5.92188C256.285 5.71029 255.797 5.53125 255.13 5.38477V2.6748C255.993 2.6748 256.725 2.70736 257.327 2.77246C259.394 3.00033 261.396 3.87923 263.333 5.40918C265.254 6.8903 266.678 8.81901 267.605 11.1953C268.566 13.6042 269.046 16.2734 269.046 19.2031C269.046 22.5234 268.436 25.4775 267.215 28.0654C265.994 30.637 264.244 32.6634 261.966 34.1445C260.859 34.8607 259.826 35.349 258.865 35.6094C257.921 35.8698 256.676 36 255.13 36V33.3633C255.813 33.1842 256.285 33.0215 256.546 32.875C256.823 32.7285 257.059 32.5007 257.254 32.1914C257.498 31.8333 257.661 31.4346 257.742 30.9951C257.84 30.5394 257.889 29.8802 257.889 29.0176ZM281.839 2.6748H291.678L298.465 31.3613C298.595 31.8659 298.742 32.3135 298.904 32.7041C299.051 33.0133 299.376 33.2656 299.881 33.4609C300.304 33.64 300.597 33.819 300.76 33.998C300.923 34.1771 301.004 34.4212 301.004 34.7305C301.004 35.5768 300.369 36 299.1 36H286.917C286.429 36 286.038 35.8861 285.745 35.6582C285.452 35.4141 285.306 35.0967 285.306 34.7061C285.306 34.3805 285.371 34.1364 285.501 33.9736C285.631 33.8109 285.924 33.6074 286.38 33.3633C286.705 33.2005 286.933 33.0215 287.063 32.8262C287.194 32.6309 287.259 32.3867 287.259 32.0938C287.259 31.8171 287.234 31.5729 287.186 31.3613L286.404 27.8213H279.593L280.252 24.916H285.721L281.229 5.06738L281.839 2.6748ZM280.154 8.87598L281.399 13.9297L277.078 29.7012C276.948 30.1569 276.883 30.5801 276.883 30.9707C276.883 31.9961 277.363 32.7285 278.323 33.168L279.178 33.5586C279.715 33.8027 279.983 34.2096 279.983 34.7793C279.983 35.5931 279.389 36 278.201 36H272C271.398 36 270.918 35.8779 270.56 35.6338C270.218 35.3734 270.047 35.0234 270.047 34.584C270.047 34.112 270.405 33.7214 271.121 33.4121C271.788 33.1191 272.277 32.8587 272.586 32.6309C272.911 32.3867 273.221 32.0612 273.514 31.6543C273.969 30.987 274.344 30.0999 274.637 28.9932L280.154 8.87598ZM321.048 20.7168V31.3613C321.048 31.9961 321.17 32.4518 321.414 32.7285C321.544 32.8913 321.666 32.9971 321.78 33.0459C321.894 33.0785 322.269 33.1761 322.903 33.3389C323.685 33.5179 324.075 33.9655 324.075 34.6816C324.075 35.1536 323.855 35.5117 323.416 35.7559C323.156 35.9186 322.651 36 321.902 36H321.072H310.184H309.378C308.646 36 308.133 35.9023 307.84 35.707C307.417 35.4466 307.205 35.1048 307.205 34.6816C307.205 33.9655 307.596 33.5179 308.377 33.3389C309.012 33.1761 309.386 33.0785 309.5 33.0459C309.614 32.9971 309.728 32.8913 309.842 32.7285C310.086 32.4518 310.208 31.9961 310.208 31.3613V23.1094L303.299 6.62988C303.038 6.01139 302.672 5.5638 302.2 5.28711C301.761 5.01042 301.476 4.79069 301.346 4.62793C301.232 4.46517 301.175 4.2373 301.175 3.94434C301.175 3.09798 301.793 2.6748 303.03 2.6748H314.993C315.628 2.6748 316.067 2.74805 316.312 2.89453C316.718 3.15495 316.922 3.49674 316.922 3.91992C316.922 4.44076 316.686 4.84766 316.214 5.14062L315.506 5.58008C315.229 5.75911 315.091 6.02767 315.091 6.38574C315.091 6.79264 315.18 7.19141 315.359 7.58203L321.048 20.7168ZM322 18.3975L320.633 15.1992L323.196 9.46191C323.408 8.97363 323.514 8.30632 323.514 7.45996C323.514 6.51595 322.993 5.84049 321.951 5.43359C321.382 5.20573 321.007 5.01042 320.828 4.84766C320.665 4.66862 320.584 4.40007 320.584 4.04199C320.584 3.60254 320.73 3.26888 321.023 3.04102C321.219 2.89453 321.438 2.79688 321.683 2.74805C321.927 2.69922 322.35 2.6748 322.952 2.6748H328.982C330.122 2.6748 330.691 3.13053 330.691 4.04199C330.691 4.36751 330.61 4.61979 330.447 4.79883C330.301 4.97786 330.008 5.16504 329.568 5.36035C328.771 5.71842 328.201 6.0765 327.859 6.43457C327.371 6.9554 326.964 7.54948 326.639 8.2168L326.077 9.46191L322 18.3975ZM342.679 2.6748H352.518L359.305 31.3613C359.435 31.8659 359.581 32.3135 359.744 32.7041C359.891 33.0133 360.216 33.2656 360.721 33.4609C361.144 33.64 361.437 33.819 361.6 33.998C361.762 34.1771 361.844 34.4212 361.844 34.7305C361.844 35.5768 361.209 36 359.939 36H347.757C347.269 36 346.878 35.8861 346.585 35.6582C346.292 35.4141 346.146 35.0967 346.146 34.7061C346.146 34.3805 346.211 34.1364 346.341 33.9736C346.471 33.8109 346.764 33.6074 347.22 33.3633C347.545 33.2005 347.773 33.0215 347.903 32.8262C348.034 32.6309 348.099 32.3867 348.099 32.0938C348.099 31.8171 348.074 31.5729 348.025 31.3613L347.244 27.8213H340.433L341.092 24.916H346.561L342.068 5.06738L342.679 2.6748ZM340.994 8.87598L342.239 13.9297L337.918 29.7012C337.788 30.1569 337.723 30.5801 337.723 30.9707C337.723 31.9961 338.203 32.7285 339.163 33.168L340.018 33.5586C340.555 33.8027 340.823 34.2096 340.823 34.7793C340.823 35.5931 340.229 36 339.041 36H332.84C332.238 36 331.757 35.8779 331.399 35.6338C331.058 35.3734 330.887 35.0234 330.887 34.584C330.887 34.112 331.245 33.7214 331.961 33.4121C332.628 33.1191 333.117 32.8587 333.426 32.6309C333.751 32.3867 334.061 32.0612 334.354 31.6543C334.809 30.987 335.184 30.0999 335.477 28.9932L340.994 8.87598Z" fill="white"/>
<path d="M143.5 57.2L138.975 45C138.892 44.7667 138.85 44.3667 138.85 43.8H138.55L138 50.4C137.883 51.7667 137.758 53.3833 137.625 55.25C137.408 56.5667 136.825 57.65 135.875 58.5C134.942 59.3667 133.85 59.8 132.6 59.8C131.383 59.8 130.4 59.4583 129.65 58.775C128.9 58.0917 128.525 57.2 128.525 56.1C128.525 55.05 128.975 54.1583 129.875 53.425C130.792 52.675 131.892 52.3 133.175 52.3L133.025 53.2C131.875 53.2 130.892 53.4833 130.075 54.05C129.258 54.5833 128.85 55.25 128.85 56.05C128.85 57.05 129.2 57.8583 129.9 58.475C130.6 59.0917 131.525 59.4 132.675 59.4C133.675 59.4 134.542 58.9917 135.275 58.175C136.025 57.375 136.5 56.3667 136.7 55.15L137.4 50.425L137.925 43.775L133.2 43.675V43.5H140.025C140.025 44.1167 140.092 44.5917 140.225 44.925L144.7 56.325C144.883 54.975 145.083 53.0083 145.3 50.425L145.525 43.775L144 43.675V43.5L146.8 43.475L145.775 50.4C145.458 52.5333 145.183 54.7333 144.95 57L143.5 57.2ZM148.221 44.35C149.021 43.7 149.596 43.375 149.946 43.375C150.346 43.375 150.646 43.525 150.846 43.825C151.046 44.1083 151.146 44.6167 151.146 45.35C151.146 45.9333 151.08 46.675 150.946 47.575L150.096 54.325C150.08 54.475 150.071 54.625 150.071 54.775C150.071 55.2583 150.163 55.6667 150.346 56C150.546 56.3333 150.796 56.5 151.096 56.5C151.963 56.5 152.888 55.7833 153.871 54.35C154.871 52.9 155.546 51.2667 155.896 49.45L156.596 43.75L155.646 43.675V43.5H157.171C157.688 43.5 158.096 43.4667 158.396 43.4L158.446 43.45L156.671 52.9C156.505 54.0667 156.421 54.8667 156.421 55.3C156.421 55.7167 156.48 56.025 156.596 56.225C156.73 56.4083 156.938 56.5 157.221 56.5C157.805 56.5 158.746 55.925 160.046 54.775L160.146 54.875C159.63 55.325 159.196 55.6917 158.846 55.975C158.496 56.2417 158.096 56.5 157.646 56.75C157.213 57 156.846 57.125 156.546 57.125C155.713 57.125 155.296 56.35 155.296 54.8C155.296 54.2667 155.346 53.6417 155.446 52.925L155.621 51.65C155.071 53.1833 154.355 54.4833 153.471 55.55C152.588 56.6 151.763 57.125 150.996 57.125C150.296 57.125 149.713 56.925 149.246 56.525C148.796 56.1083 148.571 55.575 148.571 54.925C148.571 54.7917 148.58 54.65 148.596 54.5L149.646 47.6C149.896 45.9167 150.021 44.9833 150.021 44.8C150.021 44.2833 149.838 44.0167 149.471 44C149.205 44 148.813 44.1583 148.296 44.475L148.221 44.35ZM169.214 42.7L168.614 45.225L168.539 45.2C168.239 44.9 167.814 44.6 167.264 44.3C166.731 43.9833 166.264 43.825 165.864 43.825C164.931 43.825 164.156 44.05 163.539 44.5C162.922 44.95 162.614 45.5833 162.614 46.4C162.614 46.7 162.681 46.975 162.814 47.225C162.947 47.4583 163.164 47.6917 163.464 47.925C163.781 48.1583 164.056 48.35 164.289 48.5C164.522 48.65 164.872 48.85 165.339 49.1C165.789 49.35 166.139 49.55 166.389 49.7C166.639 49.85 166.956 50.0667 167.339 50.35C167.722 50.6333 168.014 50.9083 168.214 51.175C168.414 51.425 168.589 51.7417 168.739 52.125C168.906 52.4917 168.989 52.8917 168.989 53.325C168.989 54.375 168.506 55.275 167.539 56.025C166.589 56.7583 165.447 57.125 164.114 57.125C163.481 57.125 162.664 56.925 161.664 56.525C161.114 56.3083 160.739 56.2 160.539 56.2L160.839 53.975H161.014C161.014 54.0083 161.014 54.05 161.014 54.1C161.014 54.7667 161.314 55.3833 161.914 55.95C162.514 56.5 163.264 56.775 164.164 56.775C165.147 56.775 165.981 56.475 166.664 55.875C167.364 55.2583 167.714 54.525 167.714 53.675C167.714 53.375 167.647 53.1 167.514 52.85C167.381 52.6 167.164 52.3583 166.864 52.125C166.581 51.8917 166.314 51.7 166.064 51.55C165.831 51.3833 165.489 51.175 165.039 50.925C164.589 50.675 164.247 50.4833 164.014 50.35C163.781 50.2 163.481 49.9833 163.114 49.7C162.747 49.4167 162.464 49.15 162.264 48.9C162.081 48.65 161.914 48.3417 161.764 47.975C161.614 47.5917 161.539 47.1917 161.539 46.775C161.539 45.7083 161.947 44.875 162.764 44.275C163.597 43.675 164.647 43.375 165.914 43.375C166.231 43.375 166.664 43.4417 167.214 43.575C167.547 43.6583 167.781 43.7 167.914 43.7C168.264 43.7 168.522 43.6167 168.689 43.45C168.856 43.2667 168.997 43.0083 169.114 42.675L169.214 42.7ZM171.222 57L169.972 57.1C170.322 56.5 170.972 55.1083 171.922 52.925L175.972 43.775L176.372 43.875L172.772 51.975H177.572L176.797 43.775L174.897 43.675V43.5L178.697 43.475L178.872 51.975H179.747C180.047 51.975 180.297 51.85 180.497 51.6C180.697 51.35 180.914 50.925 181.147 50.325L181.297 50.35C181.031 51.2167 180.789 51.875 180.572 52.325H178.872L178.897 52.9C178.914 53.4 178.922 53.775 178.922 54.025C178.939 54.275 178.956 54.5667 178.972 54.9C179.006 55.2333 179.039 55.475 179.072 55.625C179.122 55.775 179.189 55.9333 179.272 56.1C179.356 56.25 179.456 56.3583 179.572 56.425C179.706 56.475 179.856 56.5 180.022 56.5C180.572 56.5 181.497 55.925 182.797 54.775L182.897 54.875C182.397 55.3417 181.981 55.7167 181.647 56C181.331 56.2667 180.956 56.525 180.522 56.775C180.106 57.0083 179.739 57.125 179.422 57.125C178.922 57.125 178.539 56.8 178.272 56.15C178.006 55.4833 177.797 54.4083 177.647 52.925L177.597 52.325H172.622L172.347 52.9C171.631 54.5167 171.256 55.8833 171.222 57ZM185.072 57L183.797 57.1C183.964 56.55 184.322 54.325 184.872 50.425L185.397 43.775L183.672 43.675V43.5H187.497C187.497 44.1167 187.564 44.5917 187.697 44.925L192.172 56.325C192.355 54.975 192.555 53.0083 192.772 50.425L192.997 43.775L191.472 43.675V43.5L194.272 43.475L193.247 50.4C192.93 52.5333 192.655 54.7333 192.422 57L190.972 57.2L186.447 45C186.364 44.7667 186.322 44.3667 186.322 43.8H186.022L185.472 50.4C185.222 52.7 185.089 54.9 185.072 57ZM200.182 57L198.732 57.025C198.865 56.4083 199.082 55.0417 199.382 52.925L200.182 43.85H199.382L196.432 44.1L196.032 46.275H195.857L196.182 43.225L199.407 43.5H203.057L206.357 43.225L205.857 46.275H205.682L205.882 44.125L203.032 43.85H201.607C201.607 43.8667 201.599 43.8833 201.582 43.9L202.082 43.975L200.432 52.9C200.249 54.2167 200.157 55.3167 200.157 56.2C200.157 56.4333 200.165 56.7 200.182 57ZM205.89 57L204.64 57.1C204.99 56.5 205.64 55.1083 206.59 52.925L210.64 43.775L211.04 43.875L207.44 51.975H212.24L211.465 43.775L209.565 43.675V43.5L213.365 43.475L213.54 51.975H214.415C214.715 51.975 214.965 51.85 215.165 51.6C215.365 51.35 215.582 50.925 215.815 50.325L215.965 50.35C215.699 51.2167 215.457 51.875 215.24 52.325H213.54L213.565 52.9C213.582 53.4 213.59 53.775 213.59 54.025C213.607 54.275 213.624 54.5667 213.64 54.9C213.674 55.2333 213.707 55.475 213.74 55.625C213.79 55.775 213.857 55.9333 213.94 56.1C214.024 56.25 214.124 56.3583 214.24 56.425C214.374 56.475 214.524 56.5 214.69 56.5C215.24 56.5 216.165 55.925 217.465 54.775L217.565 54.875C217.065 55.3417 216.649 55.7167 216.315 56C215.999 56.2667 215.624 56.525 215.19 56.775C214.774 57.0083 214.407 57.125 214.09 57.125C213.59 57.125 213.207 56.8 212.94 56.15C212.674 55.4833 212.465 54.4083 212.315 52.925L212.265 52.325H207.29L207.015 52.9C206.299 54.5167 205.924 55.8833 205.89 57ZM219.99 57L218.49 57.025C218.707 56.3417 218.957 54.975 219.24 52.925L220.065 43.75L218.34 43.675V43.5L221.89 43.475C222.19 43.4583 222.457 43.4417 222.69 43.425C223.64 43.3917 224.365 43.375 224.865 43.375C225.848 43.375 226.732 43.7583 227.515 44.525C228.315 45.275 228.715 46.175 228.715 47.225C228.715 48.575 228.232 49.7333 227.265 50.7C226.315 51.65 225.165 52.125 223.815 52.125C223.215 52.1083 222.615 52.0917 222.015 52.075C222.632 52.2917 223.215 52.5667 223.765 52.9C224.332 53.2167 224.89 53.625 225.44 54.125C225.99 54.6083 226.432 55.025 226.765 55.375C227.098 55.7083 227.557 56.1917 228.14 56.825C229.757 58.575 231.34 59.9167 232.89 60.85C234.457 61.8 236.157 62.275 237.99 62.275C238.69 62.275 239.415 62.175 240.165 61.975C240.915 61.775 241.548 61.4917 242.065 61.125L242.165 61.25C241.532 61.7667 240.723 62.2083 239.74 62.575C238.773 62.9417 237.89 63.125 237.09 63.125C236.04 63.125 235.023 62.9583 234.04 62.625C233.057 62.2917 232.107 61.7917 231.19 61.125C230.29 60.475 229.457 59.7833 228.69 59.05C227.94 58.3167 227.132 57.4417 226.265 56.425C225.715 55.775 225.282 55.2833 224.965 54.95C224.665 54.6 224.282 54.2 223.815 53.75C223.348 53.3 222.898 52.95 222.465 52.7C222.048 52.4333 221.623 52.2333 221.19 52.1L221.24 51.8L223.615 51.75C224.598 51.75 225.44 51.3083 226.14 50.425C226.857 49.525 227.215 48.4417 227.215 47.175C227.215 46.2083 226.965 45.4083 226.465 44.775C225.982 44.1417 225.348 43.825 224.565 43.825C223.182 43.825 222.215 43.8083 221.665 43.775L221.615 43.85L221.965 43.925L220.465 52.9C220.215 54.5167 220.057 55.8833 219.99 57ZM230.524 57L229.274 57.1C229.624 56.5 230.274 55.1083 231.224 52.925L235.274 43.775L235.674 43.875L232.074 51.975H236.874L236.099 43.775L234.199 43.675V43.5L237.999 43.475L238.174 51.975H239.049C239.349 51.975 239.599 51.85 239.799 51.6C239.999 51.35 240.216 50.925 240.449 50.325L240.599 50.35C240.333 51.2167 240.091 51.875 239.874 52.325H238.174L238.199 52.9C238.216 53.4 238.224 53.775 238.224 54.025C238.241 54.275 238.258 54.5667 238.274 54.9C238.308 55.2333 238.341 55.475 238.374 55.625C238.424 55.775 238.491 55.9333 238.574 56.1C238.658 56.25 238.758 56.3583 238.874 56.425C239.008 56.475 239.158 56.5 239.324 56.5C239.874 56.5 240.799 55.925 242.099 54.775L242.199 54.875C241.699 55.3417 241.283 55.7167 240.949 56C240.633 56.2667 240.258 56.525 239.824 56.775C239.408 57.0083 239.041 57.125 238.724 57.125C238.224 57.125 237.841 56.8 237.574 56.15C237.308 55.4833 237.099 54.4083 236.949 52.925L236.899 52.325H231.924L231.649 52.9C230.933 54.5167 230.558 55.8833 230.524 57Z" fill="white"/>
<rect y="50" width="110" height="6" fill="white"/>
<rect x="259" y="50" width="110" height="6" fill="white"/>
</svg>
