<svg width="84" height="275" viewBox="0 0 84 275" fill="none" xmlns="http://www.w3.org/2000/svg">
<path d="M54 237.5V263.194C54 265.103 53.2431 266.932 51.8958 268.282C50.5485 269.631 48.7212 270.389 46.8158 270.389C44.9104 270.389 43.0831 269.631 41.7358 268.282C40.3885 266.932 39.6316 265.103 39.6316 263.194C39.6316 261.286 40.3885 259.456 41.7358 258.107C43.0831 256.758 44.9104 256 46.8158 256C47.9242 256 48.9711 256.247 49.8947 256.699V244.633L29.3684 249.011V267.306C29.3684 269.214 28.6115 271.044 27.2642 272.393C25.9169 273.742 24.0896 274.5 22.1842 274.5C20.2788 274.5 18.4515 273.742 17.1042 272.393C15.7569 271.044 15 269.214 15 267.306C15 265.397 15.7569 263.568 17.1042 262.218C18.4515 260.869 20.2788 260.111 22.1842 260.111C23.2926 260.111 24.3395 260.358 25.2632 260.81V243.667L54 237.5Z" fill="#0F3B01"/>
<path d="M39 0V25.6944C39 27.6025 38.2431 29.4325 36.8958 30.7817C35.5485 32.1309 33.7212 32.8889 31.8158 32.8889C29.9104 32.8889 28.0831 32.1309 26.7358 30.7817C25.3885 29.4325 24.6316 27.6025 24.6316 25.6944C24.6316 23.7864 25.3885 21.9564 26.7358 20.6072C28.0831 19.258 29.9104 18.5 31.8158 18.5C32.9242 18.5 33.9711 18.7467 34.8947 19.1989V7.13278L14.3684 11.5111V29.8056C14.3684 31.7136 13.6115 33.5436 12.2642 34.8928C10.9169 36.242 9.08958 37 7.18421 37C5.27884 37 3.45151 36.242 2.10421 34.8928C0.756906 33.5436 0 31.7136 0 29.8056C0 27.8975 0.756906 26.0675 2.10421 24.7183C3.45151 23.3691 5.27884 22.6111 7.18421 22.6111C8.29263 22.6111 9.33947 22.8578 10.2632 23.31V6.16667L39 0Z" fill="#0F3B01"/>
<path fill-rule="evenodd" clip-rule="evenodd" d="M68.94 113.001C68.3814 113.014 67.8504 113.241 67.461 113.634C67.0715 114.026 66.8547 114.553 66.8572 115.101V139.325C65.2231 138.4 63.3235 138.03 61.4529 138.271C59.5822 138.513 57.8451 139.352 56.5109 140.66C55.1766 141.967 54.3199 143.669 54.0734 145.503C53.827 147.336 54.2047 149.198 55.1479 150.799C56.0911 152.401 57.5471 153.652 59.2902 154.36C61.0332 155.068 62.9659 155.192 64.7885 154.714C66.6111 154.236 68.2217 153.182 69.3706 151.715C70.5195 150.248 71.1424 148.451 71.1429 146.602V125.979L81.5057 127.672C81.8126 127.722 82.1268 127.706 82.4267 127.625C82.7266 127.544 83.0048 127.4 83.2422 127.202C83.4795 127.005 83.6703 126.76 83.8011 126.484C83.932 126.207 83.9999 125.906 84 125.601V117.201C83.9998 116.704 83.8196 116.223 83.4916 115.844C83.1636 115.464 82.7089 115.212 82.2086 115.13L69.3921 113.036C69.2431 113.009 69.0916 112.997 68.94 113.001Z" fill="#75530E"/>
</svg>
