<svg width="39" height="37" viewBox="0 0 39 37" fill="none" xmlns="http://www.w3.org/2000/svg">
<path d="M39 0V25.6944C39 27.6025 38.2431 29.4325 36.8958 30.7817C35.5485 32.1309 33.7212 32.8889 31.8158 32.8889C29.9104 32.8889 28.0831 32.1309 26.7358 30.7817C25.3885 29.4325 24.6316 27.6025 24.6316 25.6944C24.6316 23.7864 25.3885 21.9564 26.7358 20.6072C28.0831 19.258 29.9104 18.5 31.8158 18.5C32.9242 18.5 33.9711 18.7467 34.8947 19.1989V7.13278L14.3684 11.5111V29.8056C14.3684 31.7136 13.6115 33.5436 12.2642 34.8928C10.9169 36.242 9.08958 37 7.18421 37C5.27884 37 3.45151 36.242 2.10421 34.8928C0.756906 33.5436 0 31.7136 0 29.8056C0 27.8975 0.756906 26.0675 2.10421 24.7183C3.45151 23.3691 5.27884 22.6111 7.18421 22.6111C8.29263 22.6111 9.33947 22.8578 10.2632 23.31V6.16667L39 0Z" fill="#0F3B01"/>
</svg>
