<svg width="30" height="42" viewBox="0 0 30 42" fill="none" xmlns="http://www.w3.org/2000/svg">
<path fill-rule="evenodd" clip-rule="evenodd" d="M14.94 0.000670584C14.3814 0.0138601 13.8504 0.241191 13.461 0.633844C13.0715 1.0265 12.8547 1.55316 12.8572 2.10073V26.3249C11.2231 25.4004 9.32353 25.03 7.45288 25.2713C5.58223 25.5127 3.8451 26.3521 2.51087 27.6596C1.17663 28.967 0.319868 30.6693 0.073436 32.5026C-0.172996 34.3359 0.204677 36.1976 1.14788 37.7991C2.09109 39.4005 3.54713 40.6523 5.29018 41.3601C7.03324 42.068 8.96592 42.1924 10.7885 41.7141C12.6111 41.2359 14.2217 40.1816 15.3706 38.7148C16.5195 37.248 17.1424 35.4507 17.1429 33.6016V12.979L27.5057 14.6717C27.8126 14.7217 28.1268 14.7056 28.4267 14.6246C28.7266 14.5436 29.0048 14.3995 29.2422 14.2025C29.4795 14.0055 29.6703 13.7601 29.8011 13.4836C29.932 13.207 29.9999 12.9059 30 12.601V4.20079C29.9998 3.70369 29.8196 3.2228 29.4916 2.84364C29.1636 2.46448 28.7089 2.21166 28.2086 2.13013L15.3921 0.0363715C15.2431 0.00888992 15.0916 -0.00307684 14.94 0.000670584Z" fill="#75530E"/>
</svg>
