<svg width="262" height="158" viewBox="0 0 262 158" fill="none" xmlns="http://www.w3.org/2000/svg">
<path d="M36.5205 92.2275V22.9404C36.5205 19.9131 35.6416 18.2041 33.8838 17.8135L31.0273 17.0811C28.6836 16.4951 27.5117 15.1523 27.5117 13.0527C27.5117 11.7344 28.0488 10.7578 29.123 10.123C30.2461 9.43945 31.8818 9.09766 34.0303 9.09766L36.4473 9.02441H69.04L71.0176 8.95117L73.6543 9.24414C75.5586 9.78125 76.5107 10.9775 76.5107 12.833C76.5107 14.7861 75.5342 16.1045 73.5811 16.7881L71.2373 17.5205C69.7725 18.0088 69.04 19.6201 69.04 22.3545V83.585C69.04 92.5205 66.1104 99.332 60.251 104.02C57.4678 106.217 53.9277 107.926 49.6309 109.146C45.334 110.416 40.793 111.051 36.0078 111.051C35.1777 111.051 33.7617 111.002 31.7598 110.904V102.408C32.1016 102.164 32.3457 101.993 32.4922 101.896C33.4688 101.163 34.1523 100.577 34.543 100.138C34.9824 99.6494 35.3486 99.0635 35.6416 98.3799C36.2275 96.7686 36.5205 94.7178 36.5205 92.2275ZM25.168 102.408V110.465C19.0645 109.488 14.1816 107.804 10.5195 105.411C7.19922 103.214 4.61133 100.528 2.75586 97.3545C0.949219 94.1318 0.0458984 90.6895 0.0458984 87.0273C0.0458984 82.584 1.55957 78.7754 4.58691 75.6016C7.66309 72.4277 11.3252 70.8408 15.5732 70.8408C19.626 70.8408 23.0684 72.2812 25.9004 75.1621C28.7812 77.9941 30.2217 81.4121 30.2217 85.416C30.2217 88.541 29.1719 91.4463 27.0723 94.1318C25.6562 95.9385 23.6055 97.4277 20.9199 98.5996C20.041 99.0391 19.5771 99.3809 19.5283 99.625C19.4795 99.8691 19.6748 100.187 20.1143 100.577C20.6025 100.919 21.1885 101.236 21.8721 101.529C22.6045 101.822 23.7031 102.115 25.168 102.408ZM126.462 9.02441V109H93.8691H91.9648C90.207 109 88.8398 108.683 87.8633 108.048C86.9355 107.364 86.4717 106.412 86.4717 105.191C86.4717 103.189 87.4482 101.871 89.4014 101.236C91.0127 100.699 91.9404 100.382 92.1846 100.284C92.4775 100.138 92.7705 99.8447 93.0635 99.4053C93.6494 98.624 93.9424 97.3789 93.9424 95.6699V22.3545C93.9424 20.6455 93.6494 19.4004 93.0635 18.6191C92.7705 18.1797 92.4775 17.9111 92.1846 17.8135C91.9404 17.667 91.0127 17.3252 89.4014 16.7881C87.4482 16.1533 86.4717 14.835 86.4717 12.833C86.4717 11.6123 86.9355 10.6846 87.8633 10.0498C88.8398 9.36621 90.207 9.02441 91.9648 9.02441H93.8691H126.462ZM149.24 57.2178C153.635 58.0967 157.004 58.9512 159.348 59.7812C161.74 60.6113 163.889 61.6611 165.793 62.9307C169.064 65.0303 171.555 67.8135 173.264 71.2803C175.021 74.6982 175.9 78.5312 175.9 82.7793C175.9 91.1289 172.824 97.6475 166.672 102.335C163.498 104.776 159.982 106.51 156.125 107.535C152.316 108.512 147.312 109 141.11 109H132.395V101.31C134.348 101.163 135.886 100.895 137.009 100.504C138.132 100.064 139.133 99.3564 140.012 98.3799C141.623 96.5732 142.429 93.7656 142.429 89.957V73.3311C142.429 70.8896 142.209 68.9854 141.77 67.6182C141.379 66.251 140.622 65.0059 139.499 63.8828C138.669 63.0039 137.766 62.3691 136.789 61.9785C135.812 61.5879 134.421 61.2705 132.614 61.0264V53.4092C134.421 53.2627 135.812 53.0186 136.789 52.6768C137.814 52.335 138.742 51.7734 139.572 50.9922C140.354 50.2598 141.013 49.3076 141.55 48.1357C142.087 46.9639 142.38 45.8896 142.429 44.9131V40.8848V28.2139C142.429 26.8955 142.209 25.5283 141.77 24.1123C141.33 22.6475 140.793 21.5 140.158 20.6699C139.23 19.5469 138.181 18.7168 137.009 18.1797C135.886 17.6426 134.348 17.2764 132.395 17.0811V9.02441H140.817C151.95 9.02441 160.446 11.3193 166.306 15.9092C168.991 18.0088 171.042 20.5479 172.458 23.5264C173.874 26.5049 174.582 29.7275 174.582 33.1943C174.582 36.6123 173.85 39.835 172.385 42.8623C170.969 45.8896 168.967 48.4043 166.379 50.4062C164.475 51.9688 162.277 53.2383 159.787 54.2148C157.297 55.1914 153.781 56.1924 149.24 57.2178Z" fill="#0F3B01"/>
<path d="M103.8 139.32L96.56 119.8C96.4267 119.427 96.36 118.787 96.36 117.88H95.88L95 128.44C94.8133 130.627 94.6133 133.213 94.4 136.2C94.0533 138.307 93.12 140.04 91.6 141.4C90.1067 142.787 88.36 143.48 86.36 143.48C84.4133 143.48 82.84 142.933 81.64 141.84C80.44 140.747 79.84 139.32 79.84 137.56C79.84 135.88 80.56 134.453 82 133.28C83.4667 132.08 85.2267 131.48 87.28 131.48L87.04 132.92C85.2 132.92 83.6267 133.373 82.32 134.28C81.0133 135.133 80.36 136.2 80.36 137.48C80.36 139.08 80.92 140.373 82.04 141.36C83.16 142.347 84.64 142.84 86.48 142.84C88.08 142.84 89.4667 142.187 90.64 140.88C91.84 139.6 92.6 137.987 92.92 136.04L94.04 128.48L94.88 117.84L87.32 117.68V117.4H98.24C98.24 118.387 98.3467 119.147 98.56 119.68L105.72 137.92C106.013 135.76 106.333 132.613 106.68 128.48L107.04 117.84L104.6 117.68V117.4L109.08 117.36L107.44 128.44C106.933 131.853 106.493 135.373 106.12 139L103.8 139.32ZM111.354 118.76C112.634 117.72 113.554 117.2 114.114 117.2C114.754 117.2 115.234 117.44 115.554 117.92C115.874 118.373 116.034 119.187 116.034 120.36C116.034 121.293 115.928 122.48 115.714 123.92L114.354 134.72C114.328 134.96 114.314 135.2 114.314 135.44C114.314 136.213 114.461 136.867 114.754 137.4C115.074 137.933 115.474 138.2 115.954 138.2C117.341 138.2 118.821 137.053 120.394 134.76C121.994 132.44 123.074 129.827 123.634 126.92L124.754 117.8L123.234 117.68V117.4H125.674C126.501 117.4 127.154 117.347 127.634 117.24L127.714 117.32L124.874 132.44C124.608 134.307 124.474 135.587 124.474 136.28C124.474 136.947 124.568 137.44 124.754 137.76C124.968 138.053 125.301 138.2 125.754 138.2C126.688 138.2 128.194 137.28 130.274 135.44L130.434 135.6C129.608 136.32 128.914 136.907 128.354 137.36C127.794 137.787 127.154 138.2 126.434 138.6C125.741 139 125.154 139.2 124.674 139.2C123.341 139.2 122.674 137.96 122.674 135.48C122.674 134.627 122.754 133.627 122.914 132.48L123.194 130.44C122.314 132.893 121.168 134.973 119.754 136.68C118.341 138.36 117.021 139.2 115.794 139.2C114.674 139.2 113.741 138.88 112.994 138.24C112.274 137.573 111.914 136.72 111.914 135.68C111.914 135.467 111.928 135.24 111.954 135L113.634 123.96C114.034 121.267 114.234 119.773 114.234 119.48C114.234 118.653 113.941 118.227 113.354 118.2C112.928 118.2 112.301 118.453 111.474 118.96L111.354 118.76ZM144.942 116.12L143.982 120.16L143.862 120.12C143.382 119.64 142.702 119.16 141.822 118.68C140.969 118.173 140.222 117.92 139.582 117.92C138.089 117.92 136.849 118.28 135.862 119C134.876 119.72 134.382 120.733 134.382 122.04C134.382 122.52 134.489 122.96 134.702 123.36C134.916 123.733 135.262 124.107 135.742 124.48C136.249 124.853 136.689 125.16 137.062 125.4C137.436 125.64 137.996 125.96 138.742 126.36C139.462 126.76 140.022 127.08 140.422 127.32C140.822 127.56 141.329 127.907 141.942 128.36C142.556 128.813 143.022 129.253 143.342 129.68C143.662 130.08 143.942 130.587 144.182 131.2C144.449 131.787 144.582 132.427 144.582 133.12C144.582 134.8 143.809 136.24 142.262 137.44C140.742 138.613 138.916 139.2 136.782 139.2C135.769 139.2 134.462 138.88 132.862 138.24C131.982 137.893 131.382 137.72 131.062 137.72L131.542 134.16H131.822C131.822 134.213 131.822 134.28 131.822 134.36C131.822 135.427 132.302 136.413 133.262 137.32C134.222 138.2 135.422 138.64 136.862 138.64C138.436 138.64 139.769 138.16 140.862 137.2C141.982 136.213 142.542 135.04 142.542 133.68C142.542 133.2 142.436 132.76 142.222 132.36C142.009 131.96 141.662 131.573 141.182 131.2C140.729 130.827 140.302 130.52 139.902 130.28C139.529 130.013 138.982 129.68 138.262 129.28C137.542 128.88 136.996 128.573 136.622 128.36C136.249 128.12 135.769 127.773 135.182 127.32C134.596 126.867 134.142 126.44 133.822 126.04C133.529 125.64 133.262 125.147 133.022 124.56C132.782 123.947 132.662 123.307 132.662 122.64C132.662 120.933 133.316 119.6 134.622 118.64C135.956 117.68 137.636 117.2 139.662 117.2C140.169 117.2 140.862 117.307 141.742 117.52C142.276 117.653 142.649 117.72 142.862 117.72C143.422 117.72 143.836 117.587 144.102 117.32C144.369 117.027 144.596 116.613 144.782 116.08L144.942 116.12ZM148.156 139L146.156 139.16C146.716 138.2 147.756 135.973 149.276 132.48L155.756 117.84L156.396 118L150.636 130.96H158.316L157.076 117.84L154.036 117.68V117.4L160.116 117.36L160.396 130.96H161.796C162.276 130.96 162.676 130.76 162.996 130.36C163.316 129.96 163.663 129.28 164.036 128.32L164.276 128.36C163.849 129.747 163.463 130.8 163.116 131.52H160.396L160.436 132.44C160.463 133.24 160.476 133.84 160.476 134.24C160.503 134.64 160.529 135.107 160.556 135.64C160.609 136.173 160.663 136.56 160.716 136.8C160.796 137.04 160.903 137.293 161.036 137.56C161.169 137.8 161.329 137.973 161.516 138.08C161.729 138.16 161.969 138.2 162.236 138.2C163.116 138.2 164.596 137.28 166.676 135.44L166.836 135.6C166.036 136.347 165.369 136.947 164.836 137.4C164.329 137.827 163.729 138.24 163.036 138.64C162.369 139.013 161.783 139.2 161.276 139.2C160.476 139.2 159.863 138.68 159.436 137.64C159.009 136.573 158.676 134.853 158.436 132.48L158.356 131.52H150.396L149.956 132.44C148.809 135.027 148.209 137.213 148.156 139ZM170.315 139L168.275 139.16C168.542 138.28 169.115 134.72 169.995 128.48L170.835 117.84L168.075 117.68V117.4H174.195C174.195 118.387 174.302 119.147 174.515 119.68L181.675 137.92C181.968 135.76 182.288 132.613 182.635 128.48L182.995 117.84L180.555 117.68V117.4L185.035 117.36L183.395 128.44C182.888 131.853 182.448 135.373 182.075 139L179.755 139.32L172.515 119.8C172.382 119.427 172.315 118.787 172.315 117.88H171.835L170.955 128.44C170.555 132.12 170.342 135.64 170.315 139ZM194.491 139L192.171 139.04C192.384 138.053 192.731 135.867 193.211 132.48L194.491 117.96H193.211L188.491 118.36L187.851 121.84H187.571L188.091 116.96L193.251 117.4H199.091L204.371 116.96L203.571 121.84H203.291L203.611 118.4L199.051 117.96H196.771C196.771 117.987 196.758 118.013 196.731 118.04L197.531 118.16L194.891 132.44C194.598 134.547 194.451 136.307 194.451 137.72C194.451 138.093 194.464 138.52 194.491 139ZM203.625 139L201.625 139.16C202.185 138.2 203.225 135.973 204.745 132.48L211.225 117.84L211.865 118L206.105 130.96H213.785L212.545 117.84L209.505 117.68V117.4L215.585 117.36L215.865 130.96H217.265C217.745 130.96 218.145 130.76 218.465 130.36C218.785 129.96 219.131 129.28 219.505 128.32L219.745 128.36C219.318 129.747 218.931 130.8 218.585 131.52H215.865L215.905 132.44C215.931 133.24 215.945 133.84 215.945 134.24C215.971 134.64 215.998 135.107 216.025 135.64C216.078 136.173 216.131 136.56 216.185 136.8C216.265 137.04 216.371 137.293 216.505 137.56C216.638 137.8 216.798 137.973 216.985 138.08C217.198 138.16 217.438 138.2 217.705 138.2C218.585 138.2 220.065 137.28 222.145 135.44L222.305 135.6C221.505 136.347 220.838 136.947 220.305 137.4C219.798 137.827 219.198 138.24 218.505 138.64C217.838 139.013 217.251 139.2 216.745 139.2C215.945 139.2 215.331 138.68 214.905 137.64C214.478 136.573 214.145 134.853 213.905 132.48L213.825 131.52H205.865L205.425 132.44C204.278 135.027 203.678 137.213 203.625 139ZM226.184 139L223.784 139.04C224.13 137.947 224.53 135.76 224.984 132.48L226.304 117.8L223.544 117.68V117.4L229.224 117.36C229.704 117.333 230.13 117.307 230.504 117.28C232.024 117.227 233.184 117.2 233.984 117.2C235.557 117.2 236.97 117.813 238.224 119.04C239.504 120.24 240.144 121.68 240.144 123.36C240.144 125.52 239.37 127.373 237.824 128.92C236.304 130.44 234.464 131.2 232.304 131.2C231.344 131.173 230.384 131.147 229.424 131.12C230.41 131.467 231.344 131.907 232.224 132.44C233.13 132.947 234.024 133.6 234.904 134.4C235.784 135.173 236.49 135.84 237.024 136.4C237.557 136.933 238.29 137.707 239.224 138.72C241.81 141.52 244.344 143.667 246.824 145.16C249.33 146.68 252.05 147.44 254.984 147.44C256.104 147.44 257.264 147.28 258.464 146.96C259.664 146.64 260.677 146.187 261.504 145.6L261.664 145.8C260.65 146.627 259.357 147.333 257.784 147.92C256.237 148.507 254.824 148.8 253.544 148.8C251.864 148.8 250.237 148.533 248.664 148C247.09 147.467 245.57 146.667 244.104 145.6C242.664 144.56 241.33 143.453 240.104 142.28C238.904 141.107 237.61 139.707 236.224 138.08C235.344 137.04 234.65 136.253 234.144 135.72C233.664 135.16 233.05 134.52 232.304 133.8C231.557 133.08 230.837 132.52 230.144 132.12C229.477 131.693 228.797 131.373 228.104 131.16L228.184 130.68L231.984 130.6C233.557 130.6 234.904 129.893 236.024 128.48C237.17 127.04 237.744 125.307 237.744 123.28C237.744 121.733 237.344 120.453 236.544 119.44C235.77 118.427 234.757 117.92 233.504 117.92C231.29 117.92 229.744 117.893 228.864 117.84L228.784 117.96L229.344 118.08L226.944 132.44C226.544 135.027 226.29 137.213 226.184 139ZM243.039 139L241.039 139.16C241.599 138.2 242.639 135.973 244.159 132.48L250.639 117.84L251.279 118L245.519 130.96H253.199L251.959 117.84L248.919 117.68V117.4L254.999 117.36L255.279 130.96H256.679C257.159 130.96 257.559 130.76 257.879 130.36C258.199 129.96 258.545 129.28 258.919 128.32L259.159 128.36C258.732 129.747 258.345 130.8 257.999 131.52H255.279L255.319 132.44C255.345 133.24 255.359 133.84 255.359 134.24C255.385 134.64 255.412 135.107 255.439 135.64C255.492 136.173 255.545 136.56 255.599 136.8C255.679 137.04 255.785 137.293 255.919 137.56C256.052 137.8 256.212 137.973 256.399 138.08C256.612 138.16 256.852 138.2 257.119 138.2C257.999 138.2 259.479 137.28 261.559 135.44L261.719 135.6C260.919 136.347 260.252 136.947 259.719 137.4C259.212 137.827 258.612 138.24 257.919 138.64C257.252 139.013 256.665 139.2 256.159 139.2C255.359 139.2 254.745 138.68 254.319 137.64C253.892 136.573 253.559 134.853 253.319 132.48L253.239 131.52H245.279L244.839 132.44C243.692 135.027 243.092 137.213 243.039 139Z" fill="#463208"/>
</svg>
