<svg width="400" height="400" viewBox="0 0 400 400" fill="none" xmlns="http://www.w3.org/2000/svg">
<g clip-path="url(#clip0_338_820)">
<rect width="400" height="400" rx="50" fill="white"/>
<path d="M112.527 217.637V125.254C112.527 121.217 111.355 118.939 109.012 118.418L105.203 117.441C102.078 116.66 100.516 114.87 100.516 112.07C100.516 110.312 101.232 109.01 102.664 108.164C104.161 107.253 106.342 106.797 109.207 106.797L112.43 106.699H155.887L158.523 106.602L162.039 106.992C164.578 107.708 165.848 109.303 165.848 111.777C165.848 114.382 164.546 116.139 161.941 117.051L158.816 118.027C156.863 118.678 155.887 120.827 155.887 124.473V206.113C155.887 218.027 151.98 227.109 144.168 233.359C140.457 236.289 135.737 238.568 130.008 240.195C124.279 241.888 118.224 242.734 111.844 242.734C110.737 242.734 108.849 242.669 106.18 242.539V231.211C106.635 230.885 106.961 230.658 107.156 230.527C108.458 229.551 109.37 228.77 109.891 228.184C110.477 227.533 110.965 226.751 111.355 225.84C112.137 223.691 112.527 220.957 112.527 217.637ZM97.3906 231.211V241.953C89.2526 240.651 82.7422 238.405 77.8594 235.215C73.4323 232.285 69.9818 228.704 67.5078 224.473C65.099 220.176 63.8945 215.586 63.8945 210.703C63.8945 204.779 65.9128 199.701 69.9492 195.469C74.0508 191.237 78.9336 189.121 84.5977 189.121C90.0013 189.121 94.5911 191.042 98.3672 194.883C102.208 198.659 104.129 203.216 104.129 208.555C104.129 212.721 102.729 216.595 99.9297 220.176C98.0417 222.585 95.3073 224.57 91.7266 226.133C90.5547 226.719 89.9362 227.174 89.8711 227.5C89.806 227.826 90.0664 228.249 90.6523 228.77C91.3034 229.225 92.0846 229.648 92.9961 230.039C93.9727 230.43 95.4375 230.82 97.3906 231.211ZM232.449 106.699V240H188.992H186.453C184.109 240 182.286 239.577 180.984 238.73C179.747 237.819 179.129 236.549 179.129 234.922C179.129 232.253 180.431 230.495 183.035 229.648C185.184 228.932 186.421 228.509 186.746 228.379C187.137 228.184 187.527 227.793 187.918 227.207C188.699 226.165 189.09 224.505 189.09 222.227V124.473C189.09 122.194 188.699 120.534 187.918 119.492C187.527 118.906 187.137 118.548 186.746 118.418C186.421 118.223 185.184 117.767 183.035 117.051C180.431 116.204 179.129 114.447 179.129 111.777C179.129 110.15 179.747 108.913 180.984 108.066C182.286 107.155 184.109 106.699 186.453 106.699H188.992H232.449ZM262.82 170.957C268.68 172.129 273.172 173.268 276.297 174.375C279.487 175.482 282.352 176.882 284.891 178.574C289.253 181.374 292.573 185.085 294.852 189.707C297.195 194.264 298.367 199.375 298.367 205.039C298.367 216.172 294.266 224.863 286.062 231.113C281.831 234.368 277.143 236.68 272 238.047C266.922 239.349 260.249 240 251.98 240H240.359V229.746C242.964 229.551 245.014 229.193 246.512 228.672C248.009 228.086 249.344 227.142 250.516 225.84C252.664 223.431 253.738 219.688 253.738 214.609V192.441C253.738 189.186 253.445 186.647 252.859 184.824C252.339 183.001 251.329 181.341 249.832 179.844C248.725 178.672 247.521 177.826 246.219 177.305C244.917 176.784 243.061 176.361 240.652 176.035V165.879C243.061 165.684 244.917 165.358 246.219 164.902C247.586 164.447 248.823 163.698 249.93 162.656C250.971 161.68 251.85 160.41 252.566 158.848C253.283 157.285 253.673 155.853 253.738 154.551V149.18V132.285C253.738 130.527 253.445 128.704 252.859 126.816C252.273 124.863 251.557 123.333 250.711 122.227C249.474 120.729 248.074 119.622 246.512 118.906C245.014 118.19 242.964 117.702 240.359 117.441V106.699H251.59C266.434 106.699 277.762 109.759 285.574 115.879C289.155 118.678 291.889 122.064 293.777 126.035C295.665 130.007 296.609 134.303 296.609 138.926C296.609 143.483 295.633 147.78 293.68 151.816C291.792 155.853 289.122 159.206 285.672 161.875C283.133 163.958 280.203 165.651 276.883 166.953C273.562 168.255 268.875 169.59 262.82 170.957Z" fill="#0F3B01"/>
<path d="M178 281.4L168.95 257C168.783 256.533 168.7 255.733 168.7 254.6H168.1L167 267.8C166.767 270.533 166.517 273.767 166.25 277.5C165.817 280.133 164.65 282.3 162.75 284C160.883 285.733 158.7 286.6 156.2 286.6C153.767 286.6 151.8 285.917 150.3 284.55C148.8 283.183 148.05 281.4 148.05 279.2C148.05 277.1 148.95 275.317 150.75 273.85C152.583 272.35 154.783 271.6 157.35 271.6L157.05 273.4C154.75 273.4 152.783 273.967 151.15 275.1C149.517 276.167 148.7 277.5 148.7 279.1C148.7 281.1 149.4 282.717 150.8 283.95C152.2 285.183 154.05 285.8 156.35 285.8C158.35 285.8 160.083 284.983 161.55 283.35C163.05 281.75 164 279.733 164.4 277.3L165.8 267.85L166.85 254.55L157.4 254.35V254H171.05C171.05 255.233 171.183 256.183 171.45 256.85L180.4 279.65C180.767 276.95 181.167 273.017 181.6 267.85L182.05 254.55L179 254.35V254L184.6 253.95L182.55 267.8C181.917 272.067 181.367 276.467 180.9 281L178 281.4ZM187.443 255.7C189.043 254.4 190.193 253.75 190.893 253.75C191.693 253.75 192.293 254.05 192.693 254.65C193.093 255.217 193.293 256.233 193.293 257.7C193.293 258.867 193.16 260.35 192.893 262.15L191.193 275.65C191.16 275.95 191.143 276.25 191.143 276.55C191.143 277.517 191.326 278.333 191.693 279C192.093 279.667 192.593 280 193.193 280C194.926 280 196.776 278.567 198.743 275.7C200.743 272.8 202.093 269.533 202.793 265.9L204.193 254.5L202.293 254.35V254H205.343C206.376 254 207.193 253.933 207.793 253.8L207.893 253.9L204.343 272.8C204.01 275.133 203.843 276.733 203.843 277.6C203.843 278.433 203.96 279.05 204.193 279.45C204.46 279.817 204.876 280 205.443 280C206.61 280 208.493 278.85 211.093 276.55L211.293 276.75C210.26 277.65 209.393 278.383 208.693 278.95C207.993 279.483 207.193 280 206.293 280.5C205.426 281 204.693 281.25 204.093 281.25C202.426 281.25 201.593 279.7 201.593 276.6C201.593 275.533 201.693 274.283 201.893 272.85L202.243 270.3C201.143 273.367 199.71 275.967 197.943 278.1C196.176 280.2 194.526 281.25 192.993 281.25C191.593 281.25 190.426 280.85 189.493 280.05C188.593 279.217 188.143 278.15 188.143 276.85C188.143 276.583 188.16 276.3 188.193 276L190.293 262.2C190.793 258.833 191.043 256.967 191.043 256.6C191.043 255.567 190.676 255.033 189.943 255C189.41 255 188.626 255.317 187.593 255.95L187.443 255.7ZM229.428 252.4L228.228 257.45L228.078 257.4C227.478 256.8 226.628 256.2 225.528 255.6C224.461 254.967 223.528 254.65 222.728 254.65C220.861 254.65 219.311 255.1 218.078 256C216.844 256.9 216.228 258.167 216.228 259.8C216.228 260.4 216.361 260.95 216.628 261.45C216.894 261.917 217.328 262.383 217.928 262.85C218.561 263.317 219.111 263.7 219.578 264C220.044 264.3 220.744 264.7 221.678 265.2C222.578 265.7 223.278 266.1 223.778 266.4C224.278 266.7 224.911 267.133 225.678 267.7C226.444 268.267 227.028 268.817 227.428 269.35C227.828 269.85 228.178 270.483 228.478 271.25C228.811 271.983 228.978 272.783 228.978 273.65C228.978 275.75 228.011 277.55 226.078 279.05C224.178 280.517 221.894 281.25 219.228 281.25C217.961 281.25 216.328 280.85 214.328 280.05C213.228 279.617 212.478 279.4 212.078 279.4L212.678 274.95H213.028C213.028 275.017 213.028 275.1 213.028 275.2C213.028 276.533 213.628 277.767 214.828 278.9C216.028 280 217.528 280.55 219.328 280.55C221.294 280.55 222.961 279.95 224.328 278.75C225.728 277.517 226.428 276.05 226.428 274.35C226.428 273.75 226.294 273.2 226.028 272.7C225.761 272.2 225.328 271.717 224.728 271.25C224.161 270.783 223.628 270.4 223.128 270.1C222.661 269.767 221.978 269.35 221.078 268.85C220.178 268.35 219.494 267.967 219.028 267.7C218.561 267.4 217.961 266.967 217.228 266.4C216.494 265.833 215.928 265.3 215.528 264.8C215.161 264.3 214.828 263.683 214.528 262.95C214.228 262.183 214.078 261.383 214.078 260.55C214.078 258.417 214.894 256.75 216.528 255.55C218.194 254.35 220.294 253.75 222.828 253.75C223.461 253.75 224.328 253.883 225.428 254.15C226.094 254.317 226.561 254.4 226.828 254.4C227.528 254.4 228.044 254.233 228.378 253.9C228.711 253.533 228.994 253.017 229.228 252.35L229.428 252.4ZM233.445 281L230.945 281.2C231.645 280 232.945 277.217 234.845 272.85L242.945 254.55L243.745 254.75L236.545 270.95H246.145L244.595 254.55L240.795 254.35V254L248.395 253.95L248.745 270.95H250.495C251.095 270.95 251.595 270.7 251.995 270.2C252.395 269.7 252.828 268.85 253.295 267.65L253.595 267.7C253.062 269.433 252.578 270.75 252.145 271.65H248.745L248.795 272.8C248.828 273.8 248.845 274.55 248.845 275.05C248.878 275.55 248.912 276.133 248.945 276.8C249.012 277.467 249.078 277.95 249.145 278.25C249.245 278.55 249.378 278.867 249.545 279.2C249.712 279.5 249.912 279.717 250.145 279.85C250.412 279.95 250.712 280 251.045 280C252.145 280 253.995 278.85 256.595 276.55L256.795 276.75C255.795 277.683 254.962 278.433 254.295 279C253.662 279.533 252.912 280.05 252.045 280.55C251.212 281.017 250.478 281.25 249.845 281.25C248.845 281.25 248.078 280.6 247.545 279.3C247.012 277.967 246.595 275.817 246.295 272.85L246.195 271.65H236.245L235.695 272.8C234.262 276.033 233.512 278.767 233.445 281ZM261.144 281L258.594 281.2C258.927 280.1 259.644 275.65 260.744 267.85L261.794 254.55L258.344 254.35V254H265.994C265.994 255.233 266.127 256.183 266.394 256.85L275.344 279.65C275.71 276.95 276.11 273.017 276.544 267.85L276.994 254.55L273.944 254.35V254L279.544 253.95L277.494 267.8C276.86 272.067 276.31 276.467 275.844 281L272.944 281.4L263.894 257C263.727 256.533 263.644 255.733 263.644 254.6H263.044L261.944 267.8C261.444 272.4 261.177 276.8 261.144 281ZM291.364 281L288.464 281.05C288.73 279.817 289.164 277.083 289.764 272.85L291.364 254.7H289.764L283.864 255.2L283.064 259.55H282.714L283.364 253.45L289.814 254H297.114L303.714 253.45L302.714 259.55H302.364L302.764 255.25L297.064 254.7H294.214C294.214 254.733 294.197 254.767 294.164 254.8L295.164 254.95L291.864 272.8C291.497 275.433 291.314 277.633 291.314 279.4C291.314 279.867 291.33 280.4 291.364 281ZM302.781 281L300.281 281.2C300.981 280 302.281 277.217 304.181 272.85L312.281 254.55L313.081 254.75L305.881 270.95H315.481L313.931 254.55L310.131 254.35V254L317.731 253.95L318.081 270.95H319.831C320.431 270.95 320.931 270.7 321.331 270.2C321.731 269.7 322.164 268.85 322.631 267.65L322.931 267.7C322.398 269.433 321.914 270.75 321.481 271.65H318.081L318.131 272.8C318.164 273.8 318.181 274.55 318.181 275.05C318.214 275.55 318.248 276.133 318.281 276.8C318.348 277.467 318.414 277.95 318.481 278.25C318.581 278.55 318.714 278.867 318.881 279.2C319.048 279.5 319.248 279.717 319.481 279.85C319.748 279.95 320.048 280 320.381 280C321.481 280 323.331 278.85 325.931 276.55L326.131 276.75C325.131 277.683 324.298 278.433 323.631 279C322.998 279.533 322.248 280.05 321.381 280.55C320.548 281.017 319.814 281.25 319.181 281.25C318.181 281.25 317.414 280.6 316.881 279.3C316.348 277.967 315.931 275.817 315.631 272.85L315.531 271.65H305.581L305.031 272.8C303.598 276.033 302.848 278.767 302.781 281ZM330.98 281L327.98 281.05C328.413 279.683 328.913 276.95 329.48 272.85L331.13 254.5L327.68 254.35V254L334.78 253.95C335.38 253.917 335.913 253.883 336.38 253.85C338.28 253.783 339.73 253.75 340.73 253.75C342.696 253.75 344.463 254.517 346.03 256.05C347.63 257.55 348.43 259.35 348.43 261.45C348.43 264.15 347.463 266.467 345.53 268.4C343.63 270.3 341.33 271.25 338.63 271.25C337.43 271.217 336.23 271.183 335.03 271.15C336.263 271.583 337.43 272.133 338.53 272.8C339.663 273.433 340.78 274.25 341.88 275.25C342.98 276.217 343.863 277.05 344.53 277.75C345.196 278.417 346.113 279.383 347.28 280.65C350.513 284.15 353.68 286.833 356.78 288.7C359.913 290.6 363.313 291.55 366.98 291.55C368.38 291.55 369.83 291.35 371.33 290.95C372.83 290.55 374.096 289.983 375.13 289.25L375.33 289.5C374.063 290.533 372.446 291.417 370.48 292.15C368.546 292.883 366.78 293.25 365.18 293.25C363.08 293.25 361.046 292.917 359.08 292.25C357.113 291.583 355.213 290.583 353.38 289.25C351.58 287.95 349.913 286.567 348.38 285.1C346.88 283.633 345.263 281.883 343.53 279.85C342.43 278.55 341.563 277.567 340.93 276.9C340.33 276.2 339.563 275.4 338.63 274.5C337.696 273.6 336.796 272.9 335.93 272.4C335.096 271.867 334.246 271.467 333.38 271.2L333.48 270.6L338.23 270.5C340.196 270.5 341.88 269.617 343.28 267.85C344.713 266.05 345.43 263.883 345.43 261.35C345.43 259.417 344.93 257.817 343.93 256.55C342.963 255.283 341.696 254.65 340.13 254.65C337.363 254.65 335.43 254.617 334.33 254.55L334.23 254.7L334.93 254.85L331.93 272.8C331.43 276.033 331.113 278.767 330.98 281ZM352.048 281L349.548 281.2C350.248 280 351.548 277.217 353.448 272.85L361.548 254.55L362.348 254.75L355.148 270.95H364.748L363.198 254.55L359.398 254.35V254L366.998 253.95L367.348 270.95H369.098C369.698 270.95 370.198 270.7 370.598 270.2C370.998 269.7 371.432 268.85 371.898 267.65L372.198 267.7C371.665 269.433 371.182 270.75 370.748 271.65H367.348L367.398 272.8C367.432 273.8 367.448 274.55 367.448 275.05C367.482 275.55 367.515 276.133 367.548 276.8C367.615 277.467 367.682 277.95 367.748 278.25C367.848 278.55 367.982 278.867 368.148 279.2C368.315 279.5 368.515 279.717 368.748 279.85C369.015 279.95 369.315 280 369.648 280C370.748 280 372.598 278.85 375.198 276.55L375.398 276.75C374.398 277.683 373.565 278.433 372.898 279C372.265 279.533 371.515 280.05 370.648 280.55C369.815 281.017 369.082 281.25 368.448 281.25C367.448 281.25 366.682 280.6 366.148 279.3C365.615 277.967 365.198 275.817 364.898 272.85L364.798 271.65H354.848L354.298 272.8C352.865 276.033 352.115 278.767 352.048 281Z" fill="black"/>
<ellipse cx="374.5" rx="79.5" ry="80" fill="#D39619"/>
<ellipse cx="61" cy="374" rx="86" ry="80" fill="#D39619"/>
</g>
<rect x="2.5" y="2.5" width="395" height="395" rx="47.5" stroke="#D39619" stroke-width="5"/>
<defs>
<clipPath id="clip0_338_820">
<rect width="400" height="400" rx="50" fill="white"/>
</clipPath>
</defs>
</svg>
